<svg width="324" height="434" viewBox="0 0 324 434" fill="none" xmlns="http://www.w3.org/2000/svg">
<g filter="url(#filter0_d_3_60)">
<rect x="4" width="316" height="426" rx="32" fill="url(#paint0_radial_3_60)"/>
</g>
<path d="M9.50222 57.4704C9.48423 55.8482 9.5815 53.5585 9.58663 51.6449C9.59963 47.0112 9.62765 44.0634 9.65637 41C9.68825 38.6745 9.89133 36.2678 10.6408 33.1721C11.6553 27.7136 17.2338 17.2869 25.8996 12.5197C34.3378 7.40135 43.1264 8.02667 43 8.31959C43 8.3196 43 8.31961 43 8.31962C43 8.32625 42.9968 8.33296 42.9905 8.33974C42.8686 8.44128 40.1217 8.70102 39.7416 8.91727C39.362 9.14134 39.7111 9.87332 36.0609 10.6702C30.4331 11.2184 19.586 19.067 18.2785 21.8538C17.0596 23.4302 15.7943 25.5468 14.7413 27.8541C12.4652 32.978 11.9107 36.8308 11.915 41C11.9424 42.981 11.9863 45.0524 12.0595 47.4393C11.9371 50.468 11.8147 53.4967 11.6923 56.5254C11.7491 60.4771 11.5877 66.4663 11.5966 68.867C11.6039 70.8366 11.7007 71.9907 11.7052 74.0435C11.7108 76.3458 11.6063 79.8816 11.622 84.0694C11.6473 90.935 11.8998 92.1567 11.9318 96.276C11.965 100.548 11.8278 107.191 11.9167 112.641C11.9444 113.325 11.9722 114.009 12 114.692C12.0628 114.203 12.1256 113.713 12.1884 113.223C12.2176 115.968 12.0889 117.149 12.0866 119.672C12.0838 122.64 12.2058 124.154 12.2052 126.151C12.2047 127.787 12.1068 130.006 12.1129 132.127C12.1214 135.22 12.2627 134.544 12.2891 136.208C12.2994 136.872 12.3773 149.15 12.3784 149.843C12.384 155.111 12.1906 155.569 12.1737 159.77C12.1276 171.421 12.2839 183.38 12.3429 194.157C12.3693 198.969 12.3581 203.99 12.3272 208.788C11.8323 201.231 11.4471 217.956 12.2215 211.701C12.1114 217.04 12.3204 220.825 12.2851 225.886C12.262 229.159 12.1546 231.425 12.1574 236.099C12.1631 244.392 12.4683 253.464 11.9167 255.849C12.0139 265.585 11.8138 274.017 12.3008 277.526C12.3306 280.037 12.0405 286.471 12.0011 289.286C11.9639 291.949 11.833 312.382 11.8256 315.724C11.8183 319.067 11.8104 324.918 11.8531 327.734C11.906 331.271 12.4111 333.742 11.8205 340.039C11.8683 347.36 11.8514 349.969 11.7828 356.778C11.7704 358.011 11.6827 358.15 11.6826 358.871C11.6826 360.354 11.7474 362.879 11.7553 365.527C11.7683 369.882 11.5838 372.367 11.8656 371.882C11.9128 374.753 11.96 377.624 12.0073 380.496C11.9529 381.503 11.8985 382.51 11.8441 383.517C11.8504 383.678 11.8566 383.839 11.8628 384C11.916 385.344 12.0533 386.667 12.2756 387.984C11.973 387.136 12.1482 389.331 12.6627 391.254C13.1612 393.181 13.8914 394.8 13.4659 393.152C14.97 398.317 17.8722 403.084 21.791 406.834C21.3515 406.736 23.5174 408.852 26.0649 410.367C28.5867 411.929 31.3635 412.836 30.9151 412.519C31.4807 412.76 32.057 412.984 32.6367 413.191C35.9306 414.434 39.2722 415.022 43 415.035C45.0488 415.037 47.2108 415.043 49.5757 415.072C56.3713 415.155 55.7334 415.2 57.7999 415.413C59.3991 415.401 60.9982 415.389 62.5974 415.376C70.9886 414.792 69.5055 415.804 83.8746 415.355C88.4654 415.723 99.7821 415.53 107.286 415.418C108.159 415.405 108.174 415.334 109.337 415.312C112.18 415.259 119.434 415.351 119.186 415.121C121.697 415.188 124.208 415.254 126.72 415.321C128.772 415.279 130.825 415.237 132.877 415.195C132.867 415.123 132.857 415.052 132.846 414.98C136.979 415.225 143.474 415.131 146.678 415.189C147.315 415.201 147.453 415.3 149.435 415.327C151.751 415.359 156.067 415.33 158.827 415.361C159.9 415.251 160.973 415.141 162.047 415.032C166.982 414.972 168.717 415.262 171.616 415.284C172.137 415.288 181.658 415.267 182.171 415.261C186.371 415.212 185.181 414.965 197.327 415.018C199.49 415.028 201.239 415.113 203.194 415.116C206.647 415.123 217.053 414.929 217.872 414.75C222.06 414.974 233.267 414.883 236.568 414.947C237.565 414.967 237.79 415.11 240.852 415.14C243.334 415.165 249.728 415.051 252.877 415.07C256.219 415.091 257.412 415.21 258.91 415.219C260.325 415.227 261.629 415.13 263.557 415.131C269.575 415.134 275.025 415.29 279.782 415.292C279.855 415.293 279.927 415.293 280 415.293C286.677 415.282 292.365 412.967 296.872 409.872C298.035 409.133 299.161 408.366 300.259 407.417C306.734 401.908 311.056 393.105 311.003 384C311.025 373.623 311.055 363.204 311.087 353.427C311.115 344.799 311.504 323.344 310.856 329.071C310.742 326.072 311.003 304.272 311.007 300.125C311.011 295.979 310.895 292.693 310.893 289.434C310.888 279.601 310.972 272.676 310.871 260.707C310.844 257.615 310.707 254.303 310.708 252.472C310.71 250.267 310.844 247.894 310.852 245.037C310.871 238.227 310.827 225.537 310.85 219.004C310.855 217.811 310.972 217.392 311.008 215.686C311.151 209.043 311.139 201.596 310.765 202.913C310.977 194.398 310.784 186.521 310.772 178.63C310.748 161.945 310.835 131.551 310.678 117.016C310.579 107.851 310.412 108.085 310.556 94.5911C310.588 91.5957 310.632 88.6136 310.67 84.9806C310.76 76.4647 311.069 68.6523 310.696 62.1614C310.78 53.9683 310.74 47.2201 310.935 41C310.965 40.0659 310.96 39.1506 310.922 38.2389C310.776 37.4474 310.599 36.6629 310.392 35.8889C310.207 34.788 309.961 33.6989 309.656 32.6235C309.632 32.2681 309.602 31.9149 309.564 31.5573C307.364 23.6592 299.655 16.0379 293.461 13.3457C290.449 11.8538 285.628 10.2166 280 10.2211C266.307 10.1796 249.011 10.1016 241.165 10.0326C235.23 9.98029 234.91 10.1365 231.513 9.81539C230.185 9.83773 228.858 9.86007 227.53 9.88241C226.7 9.95272 225.869 10.023 225.038 10.0933C217.424 10.0962 208.393 9.98694 201.139 9.98806C187.921 9.99031 168.073 10.1838 154.8 10.0567C151.471 10.0247 147.311 9.87967 144.052 9.88131C139.309 9.88356 138.156 10.1242 132.136 10.1287C121.762 10.136 102.441 9.85646 92.6348 9.87783C89.7224 9.88402 88.3635 9.97356 86.3524 9.98312C77.9196 10.0242 70.9963 10.0169 62.9102 10.1552C54.2279 9.92465 54.9779 9.62701 52.2872 9.32668C50.248 9.10001 43.9952 8.5747 43.1076 8.37618C42.4841 8.23671 44.812 8.05729 43.9383 7.90377C54.3405 7.78116 58.7107 7.91613 67.1573 8.1321C82.756 8.12349 98.3548 8.11489 113.954 8.10628C115.373 8.19008 116.792 8.27389 118.211 8.35769C118.211 8.35787 118.211 8.35805 118.211 8.35824C124.201 8.45495 126.74 8.23913 129.971 8.19015C160.901 7.72109 221.777 8.08821 255.827 8.14107C260.358 8.14802 271.19 8.10762 280 8.10774C285.644 8.07612 290.297 9.69144 292.091 10.4743C293.316 11.011 293.603 11.279 294.865 11.9179C305.624 17.2317 312.93 28.9007 312.872 41C312.876 41.6745 312.881 42.3489 312.885 43.0234C312.684 68.5021 312.85 94.8423 312.881 120.515C312.965 189.974 313.066 258.74 313.035 327.061C313.029 340.265 313.126 357.021 313.064 369.948C313.039 375.167 312.844 377.441 312.971 384C312.975 384.229 312.978 384.462 312.978 384.701C312.92 384.776 312.862 384.851 312.804 384.926C312.538 391.225 311.606 395.442 307.955 401.59C306.403 404.158 302.88 408.522 298.326 411.49C293.84 414.559 288.613 416.055 286.001 416.478C283.272 416.902 284.277 416.67 281.718 416.864C281.211 416.89 280.635 416.91 280 416.914C275.324 416.941 267.588 417.054 262.378 417.054C257.038 417.054 248.036 416.934 243.931 416.951C229.146 417.013 213.041 417.191 197.285 417.143C192.933 417.13 187.335 416.994 185.972 416.998C183.309 417.006 182.516 417.138 180.728 417.155C171.643 417.24 157.483 417.084 148.578 417.078C119.563 417.057 88.8246 417.115 59.9339 417.091C55.0029 417.086 49.1903 417.085 43 417.083C24.6696 418.086 9.32525 398.7 10.0498 385.82C10.0121 385.033 10.0154 384.454 10.0278 384C10.0762 382.362 10.166 382.457 10.166 380.049C10.1659 376.666 10.0686 374.834 10.0607 373.253C10.0056 362.309 9.90713 338.149 10.0067 327.817C10.0258 325.849 10.1387 324.421 10.1383 323.243C10.1383 322.646 10.0612 321.299 10.0534 319.426C9.98363 302.894 10.0286 290.839 10.055 274.639C10.1051 243.614 9.96166 207.664 10.0393 175.071C10.0561 167.97 10.2796 163.1 10.2773 162.101C10.2728 159.91 10.1225 158.507 10.0854 154.069C9.9634 139.313 10.1238 119.439 10.0484 105.404C10.0113 98.4696 9.82055 88.941 9.77834 82.1172C9.7446 76.6671 9.81943 63.7957 9.73568 61.38C9.68508 59.9104 9.52256 59.2304 9.50222 57.4704ZM12.032 241.078C11.7722 240.107 11.9881 250.311 12.1276 246.483C12.159 245.621 12.0995 241.329 12.032 241.078ZM311.313 386.598C311.232 386.683 311.15 386.767 311.068 386.851C310.981 388.156 310.812 389.455 310.561 390.741C310.763 390.029 310.939 389.314 311.091 388.587C311.186 387.93 311.261 387.26 311.313 386.598Z" fill="#756833"/>
<path d="M20.4518 17.1333C20.284 17.1572 19.4218 17.2057 18.8617 17.1098C18.4901 17.0463 18.3311 16.6285 18.0899 16.3388C17.9865 16.2147 17.9926 15.2615 18.0404 13.8999C18.0742 12.9343 18.3774 12.3857 18.6306 12.1315C18.9319 11.8288 19.2931 11.5164 19.7148 11.2878C19.9184 11.1774 20.1372 10.9392 20.3418 10.6141C20.4724 10.4067 21.1685 10.3345 22.1688 10.3823C22.767 10.4108 22.8863 10.9117 23.0429 11.2133C23.1304 11.3819 23.1279 11.6827 23.0921 11.9959C23.0465 12.3946 22.4784 12.5275 22.1887 12.6606C21.8784 12.8031 21.6105 12.9861 20.7443 12.9749C20.5689 12.9726 20.5487 12.8674 20.5364 12.6635C20.5241 12.4595 20.5241 12.1254 20.7389 11.9532C20.9537 11.7811 21.3834 11.7811 21.826 11.7811M18.2096 17.1333C18.1141 17.1333 16.9909 17.1333 15.3158 17.1453C14.4189 17.1517 14.0407 17.3981 13.6906 17.5543C13.083 17.8254 12.9789 18.3615 12.8458 18.6989C12.6363 19.2299 12.5218 19.6388 12.1232 20.5042C11.7914 21.2247 12.1334 21.8339 12.3015 21.9424C12.6502 22.1673 13.2393 22.0516 13.6519 21.8357C14.0325 21.6366 14.1578 21.1605 14.2916 20.8238C14.3451 20.6893 14.3039 20.4647 14.2681 20.3302C14.0153 20.051 13.679 19.9064 13.2693 19.8217C13.1011 19.8095 12.8386 19.8095 12.4957 19.8818M30.216 12.432C30.0243 12.5036 29.5911 12.8877 29.0367 13.4547C28.7428 13.7554 28.4339 14.1173 28.1677 14.48C27.862 14.8966 27.4705 15.3222 27.107 15.5537C26.8078 15.7442 26.5288 15.9515 26.2991 16.2882C26.111 16.564 25.7577 16.8426 25.4554 17.1322C25.2019 17.3751 24.9375 17.5904 24.6479 17.7716C24.3863 17.9352 24.1419 18.2168 24.0443 18.5665C23.9399 18.9404 23.6834 19.3494 23.6223 19.8677C23.5602 20.3941 23.4172 21.3457 23.3453 21.9059C23.3259 22.0567 23.2726 22.3149 23.2964 22.4252C23.3904 22.8596 23.6798 20.9255 24.1014 19.829C24.3699 19.1308 24.6685 18.5119 25.0554 17.9788C25.4106 17.4896 25.6825 17.0624 25.8637 16.8682C25.969 16.7553 25.8532 17.3959 25.5415 18.1398C25.0405 19.3352 24.5274 20.1219 24.3347 20.3262C24.1694 20.5014 24.2102 21.4323 23.9725 22.6115M23.9725 22.6115C23.9653 22.647 23.9579 22.6826 23.9503 22.7185C23.6358 24.1912 22.0936 23.4012 21.7309 23.5459C20.9408 23.861 19.5159 24.5556 18.8873 24.8832C17.964 25.3646 17.4482 25.6554 16.9467 25.8948M23.9725 22.6115C23.2169 22.477 22.08 22.424 21.7153 22.5825C21.0998 22.8501 20.6648 23.2271 20.3784 23.3785C20.0149 23.5705 19.6017 23.6631 19.2931 23.8724C18.8085 24.2012 18.2698 24.765 17.9793 25.0546C17.6808 25.3522 17.3484 25.6011 16.9467 25.8948M23.9725 22.6115C24.0262 22.6211 24.078 22.6311 24.1275 22.6414C24.236 22.7734 24.3568 22.8949 24.513 22.9792C24.5976 23.0157 24.6931 23.0396 24.8638 23.2088M16.9467 25.8948C16.8942 25.9199 16.8418 25.9444 16.7891 25.9685C16.5669 26.0702 16.3826 26.2386 16.2073 26.4195M16.9467 25.8948C16.8446 25.9695 16.738 26.0471 16.6264 26.1291C16.5045 26.2186 16.3622 26.3145 16.2073 26.4195M16.2073 26.4195C16.0548 26.577 15.9092 26.7439 15.7516 26.8845C15.4273 27.1738 15.0532 27.5716 14.5589 27.8968C14.5251 27.919 14.4924 27.9432 14.4606 27.9692M16.2073 26.4195C15.6701 26.784 14.9808 27.2594 14.4606 27.9692M14.4606 27.9692C14.1436 28.2293 13.9283 28.6657 13.7741 29.0178C13.5878 29.4433 13.4845 29.6453 13.4602 29.718C13.4367 29.7885 13.7231 29.1202 14.2992 28.2063C14.3508 28.1245 14.4048 28.0455 14.4606 27.9692Z" stroke="#756833" stroke-width="2" stroke-linecap="round"/>
<path d="M300.764 16.7652C300.932 16.7891 301.794 16.8375 302.354 16.7417C302.726 16.6781 302.885 16.2604 303.126 15.9707C303.23 15.8465 303.223 14.8934 303.176 13.5318C303.142 12.5661 302.839 12.0176 302.585 11.7634C302.284 11.4607 301.923 11.1482 301.501 10.9197C301.298 10.8093 301.079 10.5711 300.874 10.2459C300.744 10.0386 300.047 9.9664 299.047 10.0141C298.449 10.0427 298.33 10.5436 298.173 10.8452C298.086 11.0138 298.088 11.3146 298.124 11.6278C298.17 12.0265 298.738 12.1594 299.027 12.2925C299.338 12.435 299.606 12.6179 300.472 12.6067C300.647 12.6044 300.667 12.4993 300.68 12.2953C300.692 12.0914 300.692 11.7572 300.477 11.5851C300.262 11.413 299.833 11.413 299.39 11.413M303.006 16.7652C303.102 16.7652 304.225 16.7652 305.9 16.7771C306.797 16.7835 307.175 17.0299 307.525 17.1861C308.133 17.4573 308.237 17.9933 308.37 18.3307C308.58 18.8618 308.694 19.2706 309.093 20.136C309.425 20.8566 309.083 21.4658 308.915 21.5743C308.566 21.7992 307.977 21.6835 307.564 21.4676C307.184 21.2684 307.058 20.7924 306.924 20.4557C306.871 20.3211 306.912 20.0966 306.948 19.9621C307.201 19.6829 307.537 19.5382 307.947 19.4536C308.115 19.4413 308.377 19.4413 308.72 19.5136M291 12.0639C291.192 12.1355 291.625 12.5196 292.179 13.0866C292.473 13.3872 292.782 13.7491 293.048 14.1118C293.354 14.5284 293.746 14.9541 294.109 15.1855C294.408 15.3761 294.687 15.5834 294.917 15.92C295.105 16.1959 295.458 16.4744 295.761 16.7641C296.014 17.007 296.278 17.2223 296.568 17.4035C296.83 17.5671 297.074 17.8487 297.172 18.1984C297.276 18.5722 297.533 18.9813 297.594 19.4995C297.656 20.026 297.799 20.9775 297.871 21.5377C297.89 21.6886 297.943 21.9467 297.92 22.057C297.826 22.4915 297.536 20.5573 297.115 19.4608C296.846 18.7627 296.548 18.1438 296.161 17.6107C295.805 17.1214 295.534 16.6943 295.352 16.5001C295.247 16.3872 295.363 17.0277 295.675 17.7716C296.176 18.9671 296.689 19.7538 296.881 19.9581C297.047 20.1333 297.006 21.0641 297.244 22.2434M297.244 22.2434C297.251 22.2788 297.258 22.3145 297.266 22.3503C297.58 23.8231 299.122 23.0331 299.485 23.1778C300.275 23.4928 301.7 24.1874 302.329 24.5151C303.252 24.9964 303.768 25.2873 304.269 25.5267M297.244 22.2434C297.999 22.1088 299.136 22.0558 299.501 22.2144C300.116 22.482 300.551 22.859 300.838 23.0103C301.201 23.2023 301.614 23.2949 301.923 23.5043C302.408 23.833 302.946 24.3968 303.237 24.6865C303.535 24.9841 303.868 25.2329 304.269 25.5267M297.244 22.2434C297.19 22.253 297.138 22.2629 297.089 22.2733C296.98 22.4053 296.859 22.5268 296.703 22.6111C296.618 22.6476 296.523 22.6715 296.352 22.8407M304.269 25.5267C304.322 25.5517 304.374 25.5763 304.427 25.6004C304.649 25.7021 304.833 25.8705 305.009 26.0514M304.269 25.5267C304.371 25.6013 304.478 25.6789 304.59 25.7609C304.712 25.8505 304.854 25.9463 305.009 26.0514M305.009 26.0514C305.161 26.2088 305.307 26.3757 305.464 26.5164C305.789 26.8057 306.163 27.2035 306.657 27.5286C306.691 27.5508 306.724 27.5751 306.755 27.6011M305.009 26.0514C305.546 26.4158 306.235 26.8913 306.755 27.6011M306.755 27.6011C307.072 27.8612 307.288 28.2976 307.442 28.6497C307.628 29.0752 307.732 29.2771 307.756 29.3498C307.779 29.4204 307.493 28.752 306.917 27.8382C306.865 27.7564 306.811 27.6774 306.755 27.6011Z" stroke="#756833" stroke-width="2" stroke-linecap="round"/>
<path d="M17.7652 405.764C17.7891 405.932 17.8375 406.794 17.7417 407.354C17.6781 407.726 17.2604 407.885 16.9707 408.126C16.8465 408.23 15.8934 408.223 14.5318 408.176C13.5661 408.142 13.0176 407.839 12.7634 407.585C12.4607 407.284 12.1482 406.923 11.9197 406.501C11.8093 406.298 11.5711 406.079 11.2459 405.874C11.0386 405.744 10.9664 405.047 11.0141 404.047C11.0427 403.449 11.5436 403.33 11.8452 403.173C12.0138 403.086 12.3146 403.088 12.6278 403.124C13.0265 403.17 13.1594 403.738 13.2925 404.027C13.435 404.338 13.6179 404.606 13.6067 405.472C13.6044 405.647 13.4993 405.667 13.2953 405.68C13.0914 405.692 12.7572 405.692 12.5851 405.477C12.413 405.262 12.413 404.833 12.413 404.39M17.7652 408.006C17.7652 408.102 17.7652 409.225 17.7771 410.9C17.7835 411.797 18.0299 412.175 18.1861 412.525C18.4573 413.133 18.9933 413.237 19.3307 413.37C19.8618 413.58 20.2706 413.694 21.136 414.093C21.8566 414.425 22.4658 414.083 22.5743 413.915C22.7992 413.566 22.6835 412.977 22.4676 412.564C22.2684 412.184 21.7924 412.058 21.4557 411.924C21.3211 411.871 21.0966 411.912 20.9621 411.948C20.6829 412.201 20.5382 412.537 20.4536 412.947C20.4413 413.115 20.4413 413.377 20.5136 413.72M13.0639 396C13.1355 396.192 13.5196 396.625 14.0866 397.179C14.3872 397.473 14.7491 397.782 15.1118 398.048C15.5284 398.354 15.9541 398.746 16.1855 399.109C16.3761 399.408 16.5834 399.687 16.92 399.917C17.1959 400.105 17.4744 400.458 17.7641 400.761C18.007 401.014 18.2223 401.278 18.4035 401.568C18.5671 401.83 18.8487 402.074 19.1984 402.172C19.5722 402.276 19.9813 402.533 20.4995 402.594C21.026 402.656 21.9775 402.799 22.5377 402.871C22.6886 402.89 22.9467 402.943 23.057 402.92C23.4915 402.826 21.5573 402.536 20.4608 402.115C19.7627 401.846 19.1438 401.548 18.6107 401.161C18.1214 400.805 17.6943 400.534 17.5001 400.352C17.3872 400.247 18.0277 400.363 18.7716 400.675C19.9671 401.176 20.7538 401.689 20.9581 401.881C21.1333 402.047 22.0641 402.006 23.2434 402.244M23.2434 402.244C23.2788 402.251 23.3145 402.258 23.3503 402.266C24.8231 402.58 24.0331 404.122 24.1778 404.485C24.4928 405.275 25.1874 406.7 25.5151 407.329C25.9964 408.252 26.2873 408.768 26.5267 409.269M23.2434 402.244C23.1088 402.999 23.0558 404.136 23.2144 404.501C23.482 405.116 23.859 405.551 24.0103 405.838C24.2023 406.201 24.2949 406.614 24.5043 406.923C24.833 407.408 25.3968 407.946 25.6865 408.237C25.9841 408.535 26.2329 408.868 26.5267 409.269M23.2434 402.244C23.253 402.19 23.2629 402.138 23.2733 402.089C23.4053 401.98 23.5268 401.859 23.6111 401.703C23.6476 401.618 23.6715 401.523 23.8407 401.352M26.5267 409.269C26.5517 409.322 26.5763 409.374 26.6004 409.427C26.7021 409.649 26.8705 409.833 27.0514 410.009M26.5267 409.269C26.6013 409.371 26.6789 409.478 26.7609 409.59C26.8505 409.712 26.9463 409.854 27.0514 410.009M27.0514 410.009C27.2088 410.161 27.3757 410.307 27.5164 410.464C27.8057 410.789 28.2035 411.163 28.5286 411.657C28.5508 411.691 28.5751 411.724 28.6011 411.755M27.0514 410.009C27.4158 410.546 27.8913 411.235 28.6011 411.755M28.6011 411.755C28.8612 412.072 29.2976 412.288 29.6497 412.442C30.0752 412.628 30.2771 412.732 30.3498 412.756C30.4204 412.779 29.752 412.493 28.8382 411.917C28.7564 411.865 28.6774 411.811 28.6011 411.755Z" stroke="#756833" stroke-width="2" stroke-linecap="round"/>
<path d="M303.59 406.764C303.566 406.932 303.517 407.794 303.613 408.354C303.677 408.726 304.095 408.885 304.384 409.126C304.508 409.23 305.462 409.223 306.823 409.176C307.789 409.142 308.337 408.839 308.592 408.585C308.894 408.284 309.207 407.923 309.435 407.501C309.546 407.298 309.784 407.079 310.109 406.874C310.316 406.744 310.389 406.047 310.341 405.047C310.312 404.449 309.811 404.33 309.51 404.173C309.341 404.086 309.04 404.088 308.727 404.124C308.328 404.17 308.196 404.738 308.062 405.027C307.92 405.338 307.737 405.606 307.748 406.472C307.751 406.647 307.856 406.667 308.06 406.68C308.264 406.692 308.598 406.692 308.77 406.477C308.942 406.262 308.942 405.833 308.942 405.39M303.59 409.006C303.59 409.102 303.59 410.225 303.578 411.9C303.571 412.797 303.325 413.175 303.169 413.525C302.898 414.133 302.362 414.237 302.024 414.37C301.493 414.58 301.084 414.694 300.219 415.093C299.498 415.425 298.889 415.083 298.781 414.915C298.556 414.566 298.671 413.977 298.887 413.564C299.087 413.184 299.563 413.058 299.899 412.924C300.034 412.871 300.258 412.912 300.393 412.948C300.672 413.201 300.817 413.537 300.901 413.947C300.914 414.115 300.914 414.377 300.841 414.72M308.291 397C308.219 397.192 307.835 397.625 307.268 398.179C306.968 398.473 306.606 398.782 306.243 399.048C305.827 399.354 305.401 399.746 305.169 400.109C304.979 400.408 304.772 400.687 304.435 400.917C304.159 401.105 303.881 401.458 303.591 401.761C303.348 402.014 303.133 402.278 302.951 402.568C302.788 402.83 302.506 403.074 302.157 403.172C301.783 403.276 301.374 403.533 300.855 403.594C300.329 403.656 299.377 403.799 298.817 403.871C298.666 403.89 298.408 403.943 298.298 403.92C297.863 403.826 299.798 403.536 300.894 403.115C301.592 402.846 302.211 402.548 302.744 402.161C303.234 401.805 303.661 401.534 303.855 401.352C303.968 401.247 303.327 401.363 302.583 401.675C301.388 402.176 300.601 402.689 300.397 402.881C300.222 403.047 299.291 403.006 298.112 403.244M298.112 403.244C298.076 403.251 298.04 403.258 298.005 403.266C296.532 403.58 297.322 405.122 297.177 405.485C296.862 406.275 296.168 407.7 295.84 408.329C295.359 409.252 295.068 409.768 294.828 410.269M298.112 403.244C298.246 403.999 298.299 405.136 298.141 405.501C297.873 406.116 297.496 406.551 297.345 406.838C297.153 407.201 297.06 407.614 296.851 407.923C296.522 408.408 295.958 408.946 295.668 409.237C295.371 409.535 295.122 409.868 294.828 410.269M298.112 403.244C298.102 403.19 298.092 403.138 298.082 403.089C297.95 402.98 297.828 402.859 297.744 402.703C297.707 402.618 297.683 402.523 297.514 402.352M294.828 410.269C294.803 410.322 294.779 410.374 294.755 410.427C294.653 410.649 294.484 410.833 294.304 411.009M294.828 410.269C294.754 410.371 294.676 410.478 294.594 410.59C294.504 410.712 294.409 410.854 294.304 411.009M294.304 411.009C294.146 411.161 293.979 411.307 293.839 411.464C293.549 411.789 293.151 412.163 292.826 412.657C292.804 412.691 292.78 412.724 292.754 412.755M294.304 411.009C293.939 411.546 293.464 412.235 292.754 412.755M292.754 412.755C292.494 413.072 292.057 413.288 291.705 413.442C291.28 413.628 291.078 413.732 291.005 413.756C290.935 413.779 291.603 413.493 292.517 412.917C292.599 412.865 292.678 412.811 292.754 412.755Z" stroke="#756833" stroke-width="2" stroke-linecap="round"/>
<path d="M47 369H275L284.5 380.5L275 392H47L36 380.5L47 369Z" fill="url(#paint1_linear_3_60)"/>
<path d="M279.5 391.5L290.5 380L279.5 369" stroke="#877A4C" stroke-width="3"/>
<path d="M41.5 391.5L30 380.5L41.5 369" stroke="#877A4C" stroke-width="3"/>
<defs>
<filter id="filter0_d_3_60" x="0" y="0" width="324" height="434" filterUnits="userSpaceOnUse" color-interpolation-filters="sRGB">
<feFlood flood-opacity="0" result="BackgroundImageFix"/>
<feColorMatrix in="SourceAlpha" type="matrix" values="0 0 0 0 0 0 0 0 0 0 0 0 0 0 0 0 0 0 127 0" result="hardAlpha"/>
<feOffset dy="4"/>
<feGaussianBlur stdDeviation="2"/>
<feComposite in2="hardAlpha" operator="out"/>
<feColorMatrix type="matrix" values="0 0 0 0 0 0 0 0 0 0 0 0 0 0 0 0 0 0 0.25 0"/>
<feBlend mode="normal" in2="BackgroundImageFix" result="effect1_dropShadow_3_60"/>
<feBlend mode="normal" in="SourceGraphic" in2="effect1_dropShadow_3_60" result="shape"/>
</filter>
<radialGradient id="paint0_radial_3_60" cx="0" cy="0" r="1" gradientUnits="userSpaceOnUse" gradientTransform="translate(162 146.5) rotate(90) scale(279.5 207.329)">
<stop stop-color="#E2D59B"/>
<stop offset="0.639491" stop-color="#AEA174"/>
</radialGradient>
<linearGradient id="paint1_linear_3_60" x1="36" y1="380.5" x2="284.5" y2="380.5" gradientUnits="userSpaceOnUse">
<stop stop-color="#897C4F"/>
<stop offset="0.514534" stop-color="#746734"/>
<stop offset="1" stop-color="#897C4F"/>
</linearGradient>
</defs>
</svg>
