<svg width="11727" height="9049" viewBox="0 0 11727 9049" fill="none" xmlns="http://www.w3.org/2000/svg">
<path d="M432.352 9006.11C432.352 8959.92 422.364 8953.68 395.481 8983.07L378.24 9001.92L356.632 8977.67C343.057 8962.44 329.84 8955.28 321.077 8958.4C276.677 8974.25 242.851 8872.39 280.795 8837.1C293.833 8824.97 305.238 8822.1 324.648 8826.07C339.076 8829.02 359.079 8829.01 369.098 8826.07C392.948 8819.03 392.651 8796.69 368.708 8796.69C347.517 8796.69 313.955 8781.88 304.135 8768.2C300.496 8763.13 297.456 8739.41 297.38 8715.48C297.224 8666.39 316.469 8645.89 362.707 8645.89C393.236 8645.89 434.668 8680.79 426.794 8699.88C420.744 8714.54 400.279 8717.26 391.819 8704.53C388.757 8699.92 378.115 8696.15 368.171 8696.15C353.76 8696.15 350.668 8700.83 352.939 8719.19C354.575 8732.41 361.547 8742.58 369.301 8743.05C400.074 8744.91 406.138 8747.17 423.345 8763.18C448.434 8786.51 447.054 8830.68 420.512 8853.87C405.851 8866.68 388.293 8872.09 361.338 8872.09C326.744 8872.09 323.291 8873.92 325.889 8890.94C328.54 8908.3 334.086 8909.98 396.06 8912.29C435.873 8913.76 466.161 8918.9 470.232 8924.85C478.455 8936.88 479.671 9015.98 471.921 9034.77C468.914 9042.06 458.781 9048.02 449.403 9048.02C434.947 9048.02 432.352 9041.63 432.352 9006.11ZM581.937 9034.75C578.93 9027.46 576.149 9002.01 575.758 8978.2C575.108 8938.62 574.256 8936.92 565.832 8958.41C559.039 8975.74 551.529 8981.25 537.269 8979.35C513.846 8976.25 507.415 8947.66 522.511 8913.76C535.42 8884.78 541.511 8882.71 601.239 8887.02C643.794 8890.1 648.528 8892.41 648.528 8910.08C648.528 8920.88 644.475 8932.05 639.521 8934.9C634.567 8937.75 630.513 8958.4 630.513 8980.79C630.513 9031.72 623.969 9048 603.491 9048C594.643 9048 584.944 9042.04 581.937 9034.75ZM675.836 9012.39C675.994 8992.81 682.074 8969.47 689.347 8960.53C705.994 8940.06 707.051 8860.82 690.844 8848.31C684.394 8843.33 670.622 8841.32 660.239 8843.85C649.857 8846.37 632.841 8844.2 622.427 8839.01C606.216 8830.94 603.491 8821.88 603.491 8776.03C603.491 8711.26 618.181 8692.08 662.636 8698.79C680.547 8701.49 698.878 8698.44 710.608 8690.8C727.818 8679.59 729.594 8670.39 729.594 8592.54C729.594 8483.29 724.953 8476.49 652.78 8479.93L598.988 8482.5L596.36 8552.3C593.975 8615.62 595.229 8621.82 609.871 8619.11C622.539 8616.77 625.389 8609.53 623.121 8585.47C619.59 8547.99 634.244 8520.2 657.535 8520.2C692.618 8520.2 705.493 8583.36 679.822 8629.53C672.264 8643.12 661.117 8654.73 655.052 8655.33C619.867 8658.78 552.979 8651.04 547.333 8642.88C543.694 8637.61 540.654 8596.17 540.578 8550.79C540.441 8469.02 540.695 8468.06 568.73 8443.7C589.529 8425.63 597.895 8410.08 600.326 8384.98C604.39 8343.01 608.822 8335.89 630.873 8335.89C648.987 8335.89 655.264 8350.53 659.607 8402.91C661.757 8428.83 665.175 8432.49 689.061 8434.42C703.923 8435.62 721.74 8433.17 728.655 8428.98C745.788 8418.59 734.344 8394.53 712.27 8394.53C699.01 8394.53 692.874 8387.06 688.557 8365.66C685.354 8349.78 684.623 8331.87 686.932 8325.87C689.241 8319.86 687.638 8308.62 683.37 8300.89C677.041 8289.42 666.738 8287.68 627.517 8291.44C576.353 8296.36 540.44 8285.32 540.44 8264.68C540.44 8247.08 573.812 8233.48 602.584 8239.36C631.274 8245.22 652.117 8228.67 643.216 8207.1C639.579 8198.28 626.987 8193.47 607.563 8193.47C591.046 8193.47 574.623 8189.09 571.067 8183.74C567.511 8178.39 565.346 8133.99 566.256 8085.09C567.516 8017.36 564.706 7992.23 554.462 7979.63C536.336 7957.32 536.952 7909.34 555.612 7890.16C572.788 7872.51 580.252 7761.06 565.432 7743.52C560.496 7737.68 546.419 7735.35 532.121 7738.01C489.424 7745.95 474.88 7717.53 485.456 7646.82C487.973 7629.99 515.474 7643.52 523.775 7665.67C532.263 7688.31 537.01 7690.8 571.744 7690.8C616.426 7690.8 633.083 7676.93 628.912 7643.21C625.025 7611.77 597.214 7606.56 589.326 7635.79C583.165 7658.62 564.338 7664.22 552.231 7646.82C548.223 7641.06 544.799 6381.2 544.622 4847.14C544.37 2667.21 541.911 2057.2 533.363 2054.55C524.869 2051.92 522.425 2158.72 522.425 2532.55C522.425 2950.24 520.637 3015.33 508.914 3024.38C498.135 3032.7 492.671 3032.7 481.892 3024.38C471.739 3016.54 468.381 2995.46 468.381 2939.57C468.381 2872.4 466.744 2865.2 451.469 2865.2C430.585 2865.2 412.458 2884.25 418.591 2899.74C425.901 2918.22 409.599 2933.93 386.297 2930.86C366.274 2928.23 364.873 2924.66 365.908 2878.92C367.187 2822.39 374.429 2815.25 430.644 2815.06L469.469 2814.93L466.673 2784.9L463.878 2754.87L407.75 2751.28L351.623 2747.7L338.403 2777.13C322.776 2811.92 301.052 2815.12 286.214 2784.83C268.705 2749.09 292.273 2719.64 342.568 2714.4C381.506 2710.35 382.837 2709.26 383.601 2680.89C384.82 2635.62 386.151 2632.1 404.061 2626.81C443.62 2615.13 464.309 2644.3 436.638 2672.73C419.725 2690.12 428.288 2714.4 451.33 2714.4C465.998 2714.4 468.381 2707.94 468.381 2668.21C468.381 2642.8 463.509 2614.76 457.554 2605.89C449.4 2593.75 449.238 2584.99 456.896 2570.4C470.06 2545.33 477.494 2472.49 467.477 2466.74C448.986 2456.11 423.345 2480.75 423.345 2509.14C423.345 2545.36 404.897 2555.35 346.252 2550.91C288.505 2546.53 262.886 2519.62 293.771 2495.78C306.218 2486.17 310.645 2487.23 324.488 2503.13C346.464 2528.38 376.425 2527.42 383.488 2501.24C390.26 2476.15 382.508 2463.07 360.864 2463.07C334.939 2463.07 320.794 2439.8 322.968 2400.73C324.856 2366.81 323.412 2364.47 297.595 2359.67C249.245 2350.67 269.946 2303.89 322.276 2303.89C349.109 2303.89 366.807 2329.08 375.241 2379.29L382.981 2425.37H423.429C460.344 2425.37 464.116 2423.45 466.61 2403.46C468.92 2384.94 465.097 2380.77 441.84 2376.45C408.495 2370.24 406.416 2352.53 436.856 2333.98C462.337 2318.45 466.819 2286.55 445.798 2270.33C434.352 2261.49 430.653 2264.03 422.228 2286.51C414.625 2306.8 407.637 2312.57 393.019 2310.63C381.039 2309.04 372.721 2300.98 370.926 2289.23C368.504 2273.36 362.489 2270.38 332.962 2270.38C294.502 2270.38 279.227 2255.06 279.227 2216.47C279.227 2202.95 274.215 2194.98 265.716 2194.98C255.031 2194.98 252.205 2206.89 252.205 2251.95C252.205 2306.98 243.09 2329.02 220.324 2329.02C189.557 2329.02 175.932 2191.13 203.13 2155.01C216.299 2137.53 223.45 2136.48 326.939 2136.96C414.084 2137.35 440.036 2140.2 452.576 2150.76C467.477 2163.3 468.381 2161.21 468.381 2114.14C468.381 2068.67 465.733 2061.83 438.679 2037.44C422.342 2022.72 399.78 2010.67 388.54 2010.67C358.049 2010.67 364.777 2054.13 396.323 2060.95C410.336 2063.97 419.902 2072.62 421.652 2083.84C423.942 2098.53 418.692 2102.88 393.327 2107.3C360.384 2113.05 324.771 2100.99 323.54 2083.68C315.685 1973.2 320.964 1960.4 374.378 1960.4C397.026 1960.4 411.361 1966.84 428.475 1984.71C447.512 2004.58 458.203 2008.7 487.096 2007.32C532.475 2005.15 542.328 1995.22 538.803 1955.22C535.497 1917.72 512.927 1910.09 504.422 1943.6C496.219 1975.92 469.405 1975.64 462.422 1943.16C458.954 1927.03 449.983 1914.66 439.993 1912.23C430.836 1910 423.345 1901.08 423.345 1892.4C423.345 1877.85 432.315 1876.5 538.188 1875.06C601.352 1874.2 665.191 1873.26 680.053 1872.97C719.692 1872.19 729.594 1862.72 729.594 1825.6C729.594 1775.44 690.549 1771.94 673.132 1820.54C668.932 1832.25 604.491 1834.91 574.517 1824.59C542.286 1813.51 537.471 1795.96 544.985 1717.01C551.987 1643.44 560.953 1631.24 605.155 1635.19C630.976 1637.49 635.374 1641.26 637.653 1662.99C639.698 1682.48 635.654 1690 619.639 1696.5C588.433 1709.16 593.62 1729.53 628.85 1732.68C670.089 1736.36 684.557 1722.35 684.557 1678.72C684.557 1648.43 687.5 1642.04 701.469 1642.04C729.003 1642.04 741.522 1620.51 735.238 1583.96C729.767 1552.14 743.821 1524.76 765.623 1524.76C796.824 1524.76 812.492 1431.47 782.212 1425.99C771.768 1424.1 765.405 1431.21 761.059 1449.61C756.583 1468.57 747.525 1478.31 728.707 1484.41C714.333 1489.07 702.298 1495.34 701.964 1498.35C689.751 1608.12 683.003 1615.24 603.569 1602.18C576.102 1597.66 562.154 1590.89 560.124 1581.09C557.709 1569.42 563.845 1566.64 592.022 1566.64C637.44 1566.64 648.528 1555.01 648.528 1507.35C648.528 1445.72 612.636 1432.42 599.403 1489.15C595.079 1507.69 587.839 1516.38 576.717 1516.38C556.992 1516.38 549.447 1500.32 549.447 1458.35C549.447 1412.75 570.303 1398.21 626.782 1404.43C661.717 1408.28 674.315 1406.38 683.708 1395.85C693.782 1384.56 693.783 1380.11 683.715 1368.83C674.221 1358.19 661.691 1356.41 624.71 1360.45C588.581 1364.4 574.495 1362.55 563.601 1352.42C545.313 1335.41 545.463 1303.68 563.899 1289.45C576.387 1279.81 581.841 1282.24 603.971 1307.27C625.312 1331.42 632.275 1334.72 645.695 1327.03C668.397 1314.04 672.061 1259.83 650.901 1250.01C642.163 1245.96 600.561 1241.79 558.451 1240.75C473.171 1238.64 461.321 1232.7 456.256 1189.49C452.083 1153.9 428.166 1145.49 419.755 1176.66C412.085 1205.08 382.238 1205.36 374.606 1177.08C369.775 1159.16 363.815 1156.13 333.417 1156.13C294.472 1156.13 279.227 1140.97 279.227 1102.23C279.227 1088.71 274.215 1080.73 265.716 1080.73C255.119 1080.73 252.205 1092.26 252.205 1134.16C252.205 1190.1 238.808 1213.06 211.787 1203.41C201.126 1199.61 198.191 1183.45 198.299 1129.17C198.375 1091.01 201.497 1055.31 205.238 1049.84C217.721 1031.58 261.711 1022.09 333.858 1022.09C391.384 1022.09 405.33 1019.64 405.33 1009.52C405.33 1002.61 402.29 996.649 398.574 996.275C394.859 995.901 380.744 994.837 367.209 993.91C333.302 991.59 326.316 982.667 319.243 932.645C313.7 893.437 315.304 887.238 335.974 868.013C376.087 830.704 455.672 853.725 448.455 900.55C444.763 924.504 408.657 927.747 400.836 904.827C391.828 878.431 373.804 889.563 373.804 921.522C373.804 946.113 376.733 949.533 398.549 950.422C434.996 951.906 454.481 974.23 451.788 1011.42C448.495 1056.89 420.907 1080.73 371.574 1080.73C338.649 1080.73 332.48 1083.21 335.082 1095.39C337.847 1108.34 347.809 1109.71 420.223 1107.08C465.328 1105.44 510.455 1106.52 520.504 1109.49C549.125 1117.94 552.348 1138.51 526.751 1149.36C494.656 1162.96 497.758 1186.83 532.232 1191.54C566.756 1196.25 587.521 1179.19 580.215 1152.12C574.053 1129.28 589.764 1097.49 607.209 1097.49C627.441 1097.49 643.203 1122.62 641.109 1151.53C638.838 1182.9 662.359 1209.5 675.232 1190.12C679.256 1184.07 681.285 1166.46 679.74 1151C675.616 1109.73 700.311 1084.98 742.949 1087.65C761.38 1088.81 781.115 1086.15 786.804 1081.75C792.98 1076.98 797.149 1047.31 797.149 1008.13V942.5L740.067 939.987C674.405 937.096 658.799 945.251 661.813 980.879C665.288 1021.97 682.304 1030.44 706.11 1002.92C719.478 987.464 731.33 981.346 741.124 984.841C772.249 995.95 769.788 1042.2 737.567 1051.72C709.007 1060.15 495.899 1059.48 487.68 1050.93C483.501 1046.59 481.937 1026.93 484.204 1007.24C488.83 967.072 510.035 950.358 545.782 958.703C572.305 964.894 574.21 985.457 548.951 992.913C520.699 1001.25 533.531 1017.9 568.212 1017.9H598.987L608.071 959.255L617.154 900.611L658.841 896.142C715.85 890.032 728.187 878.211 731.4 826.623C733.715 789.465 736.88 782.954 753.71 780.725C764.497 779.296 778.53 772.291 784.895 765.157C802.206 745.757 770.576 727.475 725.09 730.589L689.061 733.056L682.146 791.297C678.343 823.33 670.237 852.49 664.132 856.096C658.027 859.703 636.035 862.712 615.261 862.783C568.767 862.941 549.447 841.729 549.447 790.521C549.447 745.099 556.561 728.867 576.469 728.867C595.579 728.867 603.491 745.012 603.491 784.007C603.491 813.779 615.557 822.391 625.046 799.393C633.578 778.713 631.477 723.937 621.186 698.763C616.057 686.214 599.843 663.217 585.157 647.659C562.778 623.953 558.455 612.218 558.455 575.188C558.455 525.677 576.955 491.779 594.967 508.288C600.854 513.683 608.492 543.46 611.942 574.459C617.369 623.231 621.771 633.468 644.63 650.48C674.094 672.407 686.436 674.36 712.753 661.26C727.13 654.104 728.603 649.884 720.065 640.316C714.185 633.725 704.496 628.333 698.535 628.333C692.574 628.333 678.884 619.608 668.113 608.943C652.404 593.391 648.528 579.395 648.528 538.227C648.528 506.269 644.279 484.411 637.269 480.303C631.076 476.675 603.716 474.662 576.469 475.83C539.307 477.423 521.633 474.066 505.734 462.395C486.922 448.586 483.521 438.969 477.964 383.866C477.647 380.731 468.31 376.961 457.214 375.488C446.118 374.016 435.688 366.214 434.035 358.15C431.584 346.189 437.586 343.489 466.618 343.489C508.246 343.489 523.208 356.777 530.786 400.478C536.035 430.745 537.153 431.515 579.532 434.036C627.866 436.911 650.195 425.373 647.982 398.665C645.382 367.292 648.226 362.131 671.046 356.804C711.015 347.474 698.59 326.733 653.031 326.733C614.613 326.733 612.498 327.961 612.498 350.265C612.498 381.17 592.42 406.404 573.268 399.569C556.658 393.64 555.462 376.345 564.333 270.358C569.101 213.386 573.001 200.561 586.797 196.488C628.215 184.261 657.102 216.584 624.546 238.726C604.109 252.625 615.538 276.467 642.638 276.467C668.704 276.467 688.671 256.633 681.093 238.266C678.08 230.962 679.966 217.424 685.285 208.18C693.061 194.666 702.315 191.913 732.541 194.126C765.108 196.51 770.127 194.64 770.127 180.122C770.127 164.365 764.122 163.367 669.293 163.367C554.602 163.367 544.122 158.884 553.23 113.726C558.142 89.3727 563.264 83.7778 580.644 83.7778C617.28 83.7778 630.513 74.8294 630.513 50.0555C630.513 37.102 632.973 20.5404 635.98 13.2519C640.949 1.20914 885.041 0 3311.16 0H5980.87V4524V9048H3328.21H675.55L675.836 9012.39ZM466.746 2196.5L469.614 2168.71L446.338 2182.89C429.522 2193.14 413.252 2195.62 387.717 2191.82C350.638 2186.31 336.731 2194.58 345.867 2216.73C349.876 2226.44 363.857 2228.73 407.465 2226.8L463.878 2224.3L466.746 2196.5ZM477.583 8815.94C460.653 8795.92 458.568 8783.16 459.44 8704.93C459.983 8656.32 460.19 8611.83 459.9 8606.07C459.529 8598.68 439.798 8595.6 392.922 8595.6C344.031 8595.6 323.423 8592.19 314.94 8582.68C295.125 8560.47 318.155 8551.67 407.48 8547.33C515.136 8542.09 522.425 8547.33 522.425 8629.71C522.425 8686.04 523.091 8687.76 544.944 8687.76C561.549 8687.76 567.462 8692.21 567.462 8704.72C567.462 8715.1 558.73 8724.77 544.944 8729.64C526.862 8736.04 522.425 8743.37 522.425 8766.84C522.425 8787.5 527.709 8798.71 540.44 8805.04C570 8819.76 562.788 8838.56 527.583 8838.56C504.772 8838.56 491.716 8832.65 477.583 8815.94ZM248.728 8524.15C233.482 8509.97 237.636 8490.47 257.405 8483.41C267.308 8479.88 270.22 8459.74 270.22 8394.8C270.22 8322.22 272.652 8308.49 288.047 8294.17C300.806 8282.31 313.113 8278.94 331.336 8282.33C358.411 8287.37 373.956 8276.57 379.591 8248.81C384.059 8226.8 425.207 8199.82 444.057 8206.55C464.415 8213.81 463.413 8229.36 441.391 8247.9C418.645 8267.04 432.163 8285.62 468.841 8285.62C497.998 8285.62 522.425 8304.86 522.425 8327.81C522.425 8336.54 530.532 8347.71 540.44 8352.64C564.873 8364.81 563.085 8381.41 535.535 8398.2C515.683 8410.29 512.97 8417.28 515.268 8450.38C517.32 8479.94 514.229 8490.76 501.631 8498.12C488.444 8505.82 482.83 8504.49 472.159 8491.12C464.909 8482.04 461.23 8469.14 463.984 8462.47C466.738 8455.79 464.004 8447.46 457.913 8443.96C442.298 8434.98 411.921 8451.99 417.86 8466.39C425.97 8486.04 413.742 8503.44 391.819 8503.44C363.538 8503.44 350.12 8462.45 365.888 8424.23C372.705 8407.71 415.482 8386.16 441.456 8386.16C457.91 8386.16 460.086 8381.94 457.666 8354.74L454.87 8323.32L409.834 8323.18C327.991 8322.93 324.264 8326.96 324.264 8415.69C324.264 8481.02 321.411 8496.18 305.596 8514.88C284.34 8540.01 268.553 8542.59 248.728 8524.15ZM483.072 8153.35C480.66 8149.72 479.124 8127.84 479.66 8104.73C480.195 8081.62 477.638 8058.2 473.976 8052.69C466.708 8041.75 433.058 8038.81 431.202 8048.95C430.57 8052.41 429.06 8064.42 427.848 8075.65C424.969 8102.31 392.178 8126.44 358.848 8126.44C320.969 8126.44 279.227 8104.23 279.227 8084.08C279.227 8060.92 302 8054.91 328.52 8071.07C358.347 8089.25 375.227 8088.04 381.053 8067.32C384.524 8054.97 380.149 8047.65 365.629 8041.5C312.926 8019.16 310.387 7867.1 363.031 7885.89C373.391 7889.59 378.136 7904.53 380.097 7939.61L382.812 7988.21L445.646 7992.4C501.428 7996.12 509.754 7998.94 519.824 8017.53C534.323 8044.3 534.881 8136.64 520.624 8149.9C508.287 8161.38 489.548 8163.1 483.072 8153.35ZM416.589 7944.96C396.731 7937.51 403.845 7909.29 426.941 7903.9C447.462 7899.11 464.153 7863.95 453.51 7847.93C444.61 7834.54 424.465 7842.47 421.719 7860.45C417.044 7891.07 382.493 7889.95 370.821 7858.81C365.546 7844.74 356.966 7833.22 351.755 7833.22C336.72 7833.22 340.763 7802.04 356.526 7796.42C379.982 7788.05 495.261 7790.67 514.01 7800.01C534.758 7810.33 536.827 7829.5 517.922 7836.25C508.969 7839.45 504.411 7852.6 504.411 7875.23C504.411 7927.05 460.908 7961.6 416.589 7944.96ZM380.56 7751.69C334.393 7747.82 330.507 7732.16 371.545 7715.35C410.927 7699.22 414.411 7677.83 378.735 7671.19C343.601 7664.66 343.376 7644.74 378.308 7633.41C396.786 7627.42 405.33 7619.08 405.33 7607.02C405.33 7594.97 396.786 7586.62 378.308 7580.63C353.024 7572.44 342.637 7554.34 358.11 7545.44C361.863 7543.29 379.48 7538.98 397.257 7535.88C452.801 7526.19 461.449 7542.55 457.882 7650.54C455.58 7720.22 451.686 7743.58 441.359 7749.64C433.928 7754 425.822 7756.96 423.345 7756.23C420.868 7755.5 401.614 7753.45 380.56 7751.69ZM473.849 7493.24C470.842 7485.95 468.381 7472.7 468.381 7463.8C468.381 7454.9 463.353 7440.13 457.207 7430.98C448.313 7417.73 448.313 7410.94 457.207 7397.69C471.514 7376.38 471.588 7336.89 457.348 7323.64C448.641 7315.55 448.641 7309.92 457.348 7296.95C471.557 7275.79 471.488 7234.42 457.207 7213.15C448.313 7199.91 448.313 7193.12 457.207 7179.87C471.498 7158.59 471.498 7125.53 457.207 7104.24C448.313 7091 448.313 7084.2 457.207 7070.96C471.514 7049.65 471.588 7010.16 457.348 6996.91C448.641 6988.81 448.641 6983.18 457.348 6970.22C471.557 6949.05 471.488 6907.69 457.207 6886.42C448.313 6873.17 448.313 6866.38 457.207 6853.14C463.353 6843.98 468.381 6826.97 468.381 6815.32C468.381 6803.68 463.353 6786.66 457.207 6777.51C448.313 6764.26 448.313 6757.47 457.207 6744.22C463.353 6735.07 468.381 6718.06 468.381 6706.41C468.381 6694.77 463.353 6677.75 457.207 6668.6C448.313 6655.35 448.313 6648.56 457.207 6635.31C471.445 6614.11 471.658 6566.2 457.573 6553.1C449.166 6545.28 449.166 6540.81 457.573 6532.99C471.573 6519.97 471.573 6457.21 457.573 6444.19C449.166 6436.37 449.166 6431.9 457.573 6424.08C470.645 6411.92 472.022 6345.06 459.35 6337.78C453.312 6334.3 453.312 6327.38 459.35 6316.89C471.058 6296.54 471.076 6233.07 459.377 6233.07C454.423 6233.07 450.37 6225.75 450.37 6216.81C450.37 6207.86 454.423 6198.21 459.377 6195.37C471.965 6188.13 470.625 6144.02 457.21 6124.04C448.316 6110.8 448.316 6104 457.21 6090.76C471.516 6069.45 471.591 6029.96 457.351 6016.71C448.644 6008.61 448.644 6002.98 457.351 5990.02C470.633 5970.23 471.97 5917.76 459.377 5910.52C454.423 5907.67 450.37 5898.03 450.37 5889.08C450.37 5880.14 454.423 5872.82 459.377 5872.82C472.16 5872.82 470.564 5817.2 457.21 5797.31C448.316 5784.06 448.316 5777.27 457.21 5764.03C471.222 5743.16 471.572 5709.79 457.991 5689.56C449.777 5677.33 450.722 5669.93 462.494 5654.3C481.037 5629.68 481.622 5601.67 463.881 5587.98C447.154 5575.07 446.408 5551.2 462.346 5538.9C477.266 5527.38 470.983 5479.47 453.746 5473.32C437.139 5467.39 437.941 5437.87 454.873 5431.83C476.639 5424.06 472.083 5374.68 448.118 5358.61L427.851 5345.02L448.118 5331.43C470.932 5316.14 475.166 5279.5 457.21 5252.75C448.316 5239.51 448.316 5232.72 457.21 5219.47C471.379 5198.37 471.532 5165.17 457.557 5144.36C449.364 5132.16 449.226 5123.52 456.991 5108.87C477.929 5069.35 479.43 5051.03 463.104 5034.25C450.906 5021.71 449.665 5015.59 457.788 5008.04C471.694 4995.1 471.356 4947.09 457.21 4926.02C448.316 4912.77 448.316 4905.98 457.21 4892.74C471.5 4871.45 471.5 4838.39 457.21 4817.11C448.316 4803.86 448.316 4797.07 457.21 4783.83C471.516 4762.52 471.591 4723.02 457.351 4709.78C448.644 4701.68 448.644 4696.05 457.351 4683.08C470.633 4663.3 471.97 4610.83 459.377 4603.59C454.423 4600.74 450.37 4591.09 450.37 4582.15C450.37 4573.21 454.423 4565.89 459.377 4565.89C472.137 4565.89 470.601 4495.9 457.575 4483.79C449.169 4475.97 449.169 4471.5 457.575 4463.68C471.99 4450.27 471.638 4384.07 457.125 4379.18C448.118 4376.15 448.118 4371.84 457.125 4357.65C471.587 4334.87 471.587 4285.86 457.125 4263.08C448.118 4248.89 448.118 4244.59 457.125 4241.55C471.641 4236.66 471.697 4185.22 457.211 4163.64C448.317 4150.4 448.317 4143.6 457.211 4130.36C471.517 4109.05 471.592 4069.56 457.351 4056.31C448.645 4048.21 448.645 4042.58 457.351 4029.62C471.567 4008.44 471.567 3960.62 457.351 3947.4C448.645 3939.3 448.645 3933.67 457.351 3920.7C471.49 3899.65 471.63 3843.39 457.576 3830.32C449.169 3822.5 449.169 3818.03 457.576 3810.21C471.667 3797.11 471.515 3742.75 457.351 3729.58C448.645 3721.48 448.645 3715.85 457.351 3702.88C471.56 3681.72 471.491 3640.35 457.211 3619.09C448.317 3605.84 448.317 3599.05 457.211 3585.8C463.356 3576.65 468.384 3559.63 468.384 3547.99C468.384 3536.34 463.356 3519.33 457.21 3510.18C448.316 3496.93 448.316 3490.14 457.21 3476.89C471.452 3455.68 471.513 3422.57 457.351 3401.47C448.644 3388.51 448.644 3382.88 457.351 3374.78C470.591 3362.46 472.109 3303.97 459.377 3296.66C447.662 3289.92 447.662 3258.96 459.377 3258.96C464.331 3258.96 468.384 3244.13 468.384 3226.01C468.384 3200.42 464.361 3191.87 450.37 3187.74C427.139 3180.89 427.139 3153.23 450.37 3141.67C460.278 3136.73 468.384 3125.6 468.384 3116.92C468.384 3090.47 478.497 3074.64 495.406 3074.64C504.254 3074.64 513.928 3080.55 516.903 3087.76C523.984 3104.92 523.997 7476.18 516.917 7493.35C509.881 7510.4 480.899 7510.32 473.849 7493.24ZM238.72 2102.9C235.589 2093.72 235.62 2082.32 238.788 2077.55C241.959 2072.78 232.096 2064.84 216.851 2059.9C182.907 2048.89 179.463 2022.06 210.582 2011.05C229.506 2004.36 232.447 1997.1 235.747 1948.9C240.608 1877.89 256.857 1859.87 316.009 1859.87C344.394 1859.87 364.188 1864.69 374.253 1874.05C388.576 1887.37 388.244 1889.17 368.767 1903.84C356.025 1913.44 337.378 1918.47 320.386 1916.89L292.738 1914.32L290.504 1998.1C289.275 2044.18 286.157 2090.36 283.576 2100.73C277.682 2124.4 246.572 2125.91 238.72 2102.9ZM211.778 1840.99C181.121 1825.03 209.007 1790.48 245.399 1799.33C268.106 1804.85 278.811 1788.44 270.76 1760.44C265.618 1742.55 259.075 1738.39 236.116 1738.39C220.549 1738.39 201.298 1732.33 193.336 1724.92C180.039 1712.56 180.066 1710.34 193.658 1697.7C201.796 1690.13 222.352 1683.93 239.338 1683.93C265.469 1683.93 270.22 1681 270.22 1664.85C270.22 1646.1 291.501 1610.52 310.231 1597.95C315.472 1594.44 331.659 1592.55 346.201 1593.76C369.231 1595.68 373.62 1592.46 380.224 1568.78C389.567 1535.29 419.424 1516.06 452.618 1522.16C482.393 1527.63 484.557 1543.42 457.796 1559.94C432.49 1575.57 441.415 1600.16 472.395 1600.16C500.158 1600.16 526.479 1633.72 518.061 1658.39C510.55 1680.4 480.931 1680.68 474.779 1658.8C470.628 1644.04 462.493 1642.04 406.381 1642.04C348.864 1642.04 341.303 1644.02 328.342 1662.42C317.237 1678.18 315.284 1694.55 319.708 1734.78C328.466 1814.39 308.263 1845.06 245.555 1847.34C234.467 1847.75 219.267 1844.89 211.778 1840.99ZM479.19 1824.68C473.245 1819.15 468.381 1802.81 468.381 1788.38C468.381 1773.94 466.12 1760.02 463.356 1757.45C452.542 1747.39 423.345 1762.11 423.345 1777.62C423.345 1800.94 406.903 1826.36 391.819 1826.36C362.764 1826.36 349.347 1759.7 372.479 1730.28C388.437 1709.98 481.691 1710.89 506.274 1731.58C533.139 1754.19 524.651 1834.73 495.403 1834.73C492.431 1834.73 485.135 1830.21 479.19 1824.68ZM202.067 1632.77C198.338 1627.16 192.818 1611.34 189.801 1597.61C185.431 1577.74 179.009 1572.14 158.24 1570.08C123.662 1566.65 107.14 1549.9 106.142 1517.26C104.627 1467.72 137.044 1460.44 147.275 1508.02C154.238 1540.4 174.903 1547.79 210.597 1530.66C226.05 1523.24 248.51 1516.05 260.507 1514.68C297.126 1510.5 292.133 1493.33 252.488 1487.1C210.582 1480.51 189.61 1464.61 188.123 1438.28C184.352 1371.54 188.75 1337.99 203.22 1323.12C222.378 1303.43 254.725 1302.14 271.029 1320.41C281.243 1331.85 280.473 1335.63 265.907 1345.54C256.477 1351.95 245.927 1357.2 242.462 1357.2C232.921 1357.2 227.977 1412.54 235.768 1432.13C242.499 1449.06 264.67 1454.03 291.205 1444.55C302.96 1440.36 302.771 1436.7 289.703 1415.52C275.61 1392.68 275.703 1390.42 291.304 1376.34C307.215 1361.97 308.397 1362.12 321.664 1380.24C337.77 1402.23 362.145 1404.64 378.878 1385.88C388.643 1374.94 388.446 1371.38 377.729 1365.07C370.616 1360.88 359.873 1357.4 353.855 1357.33C335.444 1357.11 322.845 1324.57 325.519 1284.13C327.625 1252.28 324.655 1243.6 308.147 1233.41C297.195 1226.65 288.235 1215.92 288.235 1209.57C288.235 1191.92 340.32 1195.37 366.843 1214.78C379.439 1223.99 395.278 1231.53 402.041 1231.53C421.845 1231.53 416.311 1262.61 395.61 1267.65C382.185 1270.91 377.722 1277.67 379.847 1291.53C382.515 1308.92 386.865 1310.58 423.345 1308.17C445.638 1306.7 470.895 1299.64 479.471 1292.49C492.152 1281.92 497.621 1281.46 508.745 1290.05C519.092 1298.03 522.425 1318.65 522.425 1374.66C522.425 1440.38 520.175 1450.65 502.416 1466.04C476.142 1488.81 453.986 1484.56 457.725 1457.47C470.885 1362.13 470.66 1355.56 454.342 1358.51C445.602 1360.1 433.865 1374.06 428.261 1389.55C415.078 1425.99 392.146 1440.98 349.564 1440.98C315.042 1440.98 303.663 1451.8 328.768 1460.76C337.666 1463.94 342.279 1477.04 342.279 1499.14C342.279 1527.83 338.422 1534.56 315.704 1545.48C301.088 1552.51 278.795 1558.27 266.164 1558.27C253.533 1558.27 242.849 1562.98 242.422 1568.74C241.995 1574.5 240.982 1592.34 240.17 1608.38C238.642 1638.57 215.688 1653.27 202.067 1632.77ZM14.2775 1283.18C-3.70323 1250.84 -3.86961 1223.64 13.7695 1200.22C45.4039 1158.21 139.838 1173.07 145.763 1220.98C148.423 1242.51 151.828 1244.27 195.115 1246.61C274.273 1250.87 261.784 1290.18 181.27 1290.18C161.421 1290.18 142.675 1293.95 139.613 1298.56C136.552 1303.16 126.256 1306.93 116.735 1306.93C99.1378 1306.93 92.8638 1293.2 88.0392 1244.1C84.13 1204.32 60.4809 1212.41 51.2808 1256.67C40.7803 1307.18 31.3719 1313.93 14.2775 1283.18ZM59.3639 1126.37C46.9434 1114.82 45.4336 1101.81 50.3189 1048.45C53.5442 1013.22 61.224 979.387 67.3852 973.274C73.5465 967.161 95.2846 960.076 115.692 957.53C145.722 953.784 153.96 955.721 158.898 967.689C167.467 988.46 150.524 1009.49 125.072 1009.68C112.175 1009.78 103.584 1014.8 103.584 1022.25C103.584 1030.86 115.307 1035.44 141.865 1037.23C172.813 1039.31 180.147 1042.93 180.147 1056.08C180.147 1072.69 177.143 1073.89 131.444 1075.58C95.5084 1076.9 92.0482 1094.09 126.428 1100.48C146.858 1104.28 153.663 1109.71 151.473 1120.44C147.236 1141.22 79.9782 1145.55 59.3639 1126.37ZM238.114 982.294C228.568 941.776 226.103 938.311 206.825 938.311C179.606 938.311 186.058 901.615 213.924 897.934C232.692 895.455 234.191 891.007 234.191 837.794C234.191 797.35 238.278 776.529 247.991 767.494C279.699 738.003 370.354 743.023 376.942 774.635C381.219 795.155 361.493 804.96 327.547 799.187C310.147 796.228 296.742 798.241 292.629 804.431C288.957 809.957 286.681 850.937 287.571 895.497C288.461 940.057 286.514 983 283.245 990.924C273.633 1014.22 244.314 1008.62 238.114 982.294ZM490.384 909.433C482.441 898.157 476.66 874.595 477.538 857.072C480.028 807.374 478.758 804.267 455.973 804.267C426.73 804.267 408.338 783.384 423.055 766.891C441.416 746.313 466.772 743.79 495.666 759.666C526.435 776.571 535.973 800.132 528.767 841.433C523.489 871.681 534.544 888.044 560.256 888.044C580.571 888.044 582.157 917.733 562.222 924.848C532.215 935.558 504.616 929.635 490.384 909.433ZM125.643 753.201C120.088 743.546 116.84 716.214 118.426 692.462C120.011 668.711 118.095 644.565 114.167 638.806C110.039 632.754 88.3733 628.333 62.8367 628.333C12.8563 628.333 0 615.972 0 567.915C0 520.183 20.4927 502.667 76.3364 502.667C135.6 502.667 153.125 508.403 153.125 527.8C153.125 545.574 135.767 552.933 93.8403 552.933C67.0036 552.933 63.0513 555.622 63.0513 573.878C63.0513 593.3 66.1832 594.822 106.146 594.822C144.161 594.822 151.062 597.69 164.694 619.154C182.119 646.591 185.826 728.476 170.822 754.551C158.609 775.776 138.283 775.169 125.643 753.201ZM206.542 723.976C189.526 704.906 206.858 683.403 241.854 680.164C266.59 677.874 270.22 674.39 270.22 652.936C270.22 639.405 267.18 628.027 263.464 627.653C259.749 627.278 245.634 626.214 232.099 625.288C178.304 621.607 180.233 578.067 234.191 578.067C264.741 578.067 280.152 562.22 273.3 537.851C270.349 527.353 274.468 510.451 282.892 498.493C294.912 481.43 304.968 477.533 336.98 477.533C374.763 477.533 376.534 476.389 382.197 448.313C388.447 417.323 412.72 398.867 436.203 407.249C454.112 413.64 454.53 438.756 436.955 452.323C418.412 466.637 428.331 477.533 459.906 477.533C510.705 477.533 522.425 500.178 522.425 598.326C522.425 696.667 518.65 712.111 494.611 712.111C478.603 712.111 473.669 702.601 466.357 657.656C461.601 628.424 429.5 636.747 422.396 669.054C418.991 684.539 410.284 702.716 403.047 709.447C382.018 729.006 360.293 702.534 360.293 657.352C360.293 616.61 375.055 603.302 420.501 603.072C454.452 602.9 466.16 594.75 468.456 569.689C472.279 527.966 471.993 527.8 396.323 527.8C356.69 527.8 323.925 530.628 323.511 534.083C323.097 537.539 321.696 579.577 320.398 627.5C318.409 700.953 315.428 716.408 301.415 725.939C278.51 741.516 221.134 740.329 206.542 723.976ZM197.938 523.066C193.107 511.246 189.154 492.396 189.154 481.177C189.154 465.003 184.49 460.778 166.636 460.778C140.372 460.778 108.088 433.943 108.088 412.112C108.088 390.702 130.384 364.917 142.751 372.026C148.456 375.305 153.125 382.96 153.125 389.035C153.125 411.605 174.301 417.814 211.077 406.027C230.565 399.781 249.855 396.593 253.942 398.943C264.395 404.952 297.242 394.233 297.242 384.813C297.242 380.516 284.816 377 269.628 377C208.091 377 181.728 341.402 186.236 264.396C187.861 236.633 194.129 211.594 200.411 207.772C238.006 184.893 297.242 191.139 297.242 217.982C297.242 227.11 294.202 235.059 290.486 235.647C286.771 236.235 274.483 237.611 263.179 238.705C236.636 241.273 236.185 241.859 234.117 276.467C231.186 325.527 232.044 326.733 269.869 326.733C359.151 326.733 370.792 429.949 282.995 443.117C248.631 448.272 247.626 449.397 244.831 485.847C240.441 543.077 214.526 563.646 197.938 523.066ZM302.473 305.704C263.354 269.319 291.564 244.886 339.184 273.907C361.352 287.416 363.098 287.315 375.325 271.812C386.86 257.188 385.946 253.809 366.382 238.767C336.089 215.474 322.523 187.927 325.896 156.557C328.163 135.474 324.503 128.116 308.501 121.586C269.181 105.541 288.046 75.4 337.409 75.4C367.677 75.4 376.965 90.9722 380.052 146.901L382.812 196.878L424.816 199.402C458.662 201.435 470.409 198.342 485.302 183.473C500.663 168.137 506.12 166.823 517.609 175.692C533.41 187.889 537.038 280.452 522.544 301.6C509.506 320.623 482.854 301.373 477.389 268.986C474.912 254.307 469.845 242.445 466.129 242.626C462.414 242.807 453.294 242.956 445.863 242.956C438.213 242.956 432.352 250.464 432.352 260.262C432.352 279.972 416.436 311.188 401.73 320.322C378.674 334.64 325.101 326.75 302.473 305.704ZM95.5407 196.193C92.5337 188.904 90.0733 168.392 90.0733 150.609C90.0733 132.827 86.02 115.948 81.066 113.1C69.7652 106.604 69.1324 67.0222 80.3293 67.0222C84.8782 67.0222 94.4888 64.9204 101.686 62.3515C119.693 55.9246 144.117 80.6585 144.117 105.321C144.117 123.654 147.904 125.678 182.398 125.781C236.937 125.944 261.213 133.675 261.213 150.881C261.213 169.84 243.656 175.933 189.024 175.933C153.242 175.933 144.296 178.967 139.614 192.689C132.806 212.639 103.294 214.985 95.5407 196.193ZM414.155 150.484C401.183 127.938 409.803 105.223 437.81 88.1557C455.981 77.0813 458.448 71.8902 450.024 62.4495C441.949 53.4 423.056 51.6087 369.632 54.8273C313.337 58.219 297.527 56.4915 288.092 45.9179C266.788 22.0426 290.491 16.0936 397.082 18.5626L499.907 20.9444L502.586 68.426C504.96 110.505 503.104 116.545 486.274 121.514C475.829 124.597 462.826 136.218 457.379 147.338C445.277 172.042 427.312 173.349 414.155 150.484ZM194.621 78.9037C178.975 40.9789 192.508 0 220.68 0C243.164 0 252.205 14.1315 252.205 49.2763C252.205 87.0747 207.485 110.084 194.621 78.9037ZM555.763 36.5933C552.29 33.3622 549.447 23.8069 549.447 15.3593C549.447 4.45037 556.153 0 572.592 0C591.415 0 595.199 3.50421 592.859 18.7644C590.01 37.3367 567.958 47.9354 555.763 36.5933Z" fill="url(#paint0_radial_123_1054)"/>
<path d="M11294.5 41.9083C11294.5 88.0996 11304.5 94.3404 11331.4 64.9469L11348.6 46.0969L11370.2 70.3451C11383.8 85.5803 11397 92.7433 11405.8 89.6155C11450.2 73.7683 11484 175.63 11446.1 210.921C11433 223.048 11421.6 225.917 11402.2 221.951C11387.8 219.004 11367.8 219.013 11357.8 221.951C11333.9 228.991 11334.2 251.333 11358.2 251.333C11379.4 251.333 11412.9 266.136 11422.7 279.815C11426.4 284.885 11429.4 308.612 11429.5 332.542C11429.6 381.633 11410.4 402.133 11364.2 402.133C11333.6 402.133 11292.2 367.229 11300.1 348.143C11306.1 333.48 11326.6 330.757 11335 343.489C11338.1 348.097 11348.8 351.866 11358.7 351.866C11373.1 351.866 11376.2 347.19 11373.9 328.828C11372.3 315.606 11365.3 305.44 11357.6 304.97C11326.8 303.106 11320.7 300.848 11303.5 284.844C11278.4 261.509 11279.8 217.341 11306.4 194.149C11321 181.338 11338.6 175.933 11365.5 175.933C11400.1 175.933 11403.6 174.098 11401 157.083C11398.3 139.723 11392.8 138.036 11330.8 135.734C11291 134.256 11260.7 129.124 11256.6 123.167C11248.4 111.136 11247.2 32.0349 11254.9 13.2521C11258 5.96342 11268.1 -0.000284832 11277.5 -0.000284832C11291.9 -0.000284832 11294.5 6.39363 11294.5 41.9083ZM11144.9 13.2713C11147.9 20.5599 11150.7 46.0074 11151.1 69.8213C11151.8 109.402 11152.6 111.101 11161 89.6093C11167.8 72.2805 11175.3 66.7741 11189.6 68.6654C11213 71.7706 11219.5 100.357 11204.4 134.257C11191.4 163.243 11185.4 165.312 11125.6 160.996C11083.1 157.922 11078.3 155.614 11078.3 137.939C11078.3 127.136 11082.4 115.967 11087.3 113.119C11092.3 110.271 11096.4 89.622 11096.4 67.2326C11096.4 16.298 11102.9 0.0188904 11123.4 0.0188904C11132.2 0.0188904 11141.9 5.9826 11144.9 13.2713ZM11051 35.625C11050.9 55.2076 11044.8 78.5481 11037.5 87.4924C11020.9 107.962 11019.8 187.199 11036 199.71C11042.5 204.688 11056.2 206.696 11066.6 204.171C11077 201.645 11094 203.82 11104.4 209.006C11120.7 217.075 11123.4 226.137 11123.4 271.994C11123.4 336.756 11108.7 355.94 11064.2 349.23C11046.3 346.527 11028 349.581 11016.3 357.223C10999 368.434 10997.3 377.625 10997.3 455.482C10997.3 564.729 11001.9 571.533 11074.1 568.087L11127.9 565.519L11130.5 495.721C11132.9 432.399 11131.6 426.2 11117 428.908C11104.3 431.252 11101.5 438.485 11103.7 462.546C11107.3 500.025 11092.6 527.819 11069.3 527.819C11034.2 527.819 11021.4 464.664 11047 418.492C11054.6 404.898 11065.7 393.288 11071.8 392.694C11107 389.244 11173.9 396.976 11179.5 405.144C11183.2 410.411 11186.2 451.849 11186.3 497.23C11186.4 578.996 11186.2 579.963 11158.1 604.32C11137.3 622.392 11129 637.94 11126.5 663.043C11122.5 705.007 11118 712.13 11096 712.13C11077.9 712.13 11071.6 697.49 11067.3 645.108C11065.1 619.189 11061.7 615.532 11037.8 613.603C11022.9 612.403 11005.1 614.851 10998.2 619.042C10981.1 629.427 10992.5 653.486 11014.6 653.486C11027.9 653.486 11034 660.956 11038.3 682.358C11041.5 698.238 11042.2 716.146 11039.9 722.153C11037.6 728.16 11039.2 739.401 11043.5 747.134C11049.8 758.599 11060.1 760.34 11099.4 756.575C11150.5 751.664 11186.4 762.703 11186.4 783.342C11186.4 800.941 11153.1 814.538 11124.3 808.661C11095.6 802.8 11074.8 819.35 11083.7 840.924C11087.3 849.74 11099.9 854.552 11119.3 854.552C11135.8 854.552 11152.2 858.931 11155.8 864.283C11159.4 869.634 11161.5 914.025 11160.6 962.929C11159.4 1030.66 11162.2 1055.79 11172.4 1068.39C11190.5 1090.7 11189.9 1138.68 11171.3 1157.86C11154.1 1175.51 11146.6 1286.96 11161.4 1304.5C11166.4 1310.34 11180.4 1312.67 11194.7 1310.01C11237.4 1302.07 11252 1330.49 11241.4 1401.2C11238.9 1418.03 11211.4 1404.5 11203.1 1382.35C11194.6 1359.71 11189.9 1357.22 11155.1 1357.22C11110.4 1357.22 11093.8 1371.09 11098 1404.81C11101.8 1436.25 11129.7 1441.46 11137.5 1412.23C11143.7 1389.4 11162.5 1383.8 11174.6 1401.2C11178.6 1406.96 11182.1 2666.82 11182.2 4200.88C11182.5 6380.8 11185 6990.82 11193.5 6993.47C11202 6996.1 11204.4 6889.3 11204.4 6515.47C11204.4 6097.78 11206.2 6032.69 11218 6023.64C11228.7 6015.32 11234.2 6015.32 11245 6023.64C11255.1 6031.48 11258.5 6052.56 11258.5 6108.45C11258.5 6175.62 11260.1 6182.82 11275.4 6182.82C11296.3 6182.82 11314.4 6163.77 11308.3 6148.28C11301 6129.8 11317.3 6114.09 11340.6 6117.16C11360.6 6119.79 11362 6123.36 11361 6169.1C11359.7 6225.63 11352.4 6232.77 11296.2 6232.96L11257.4 6233.09L11260.2 6263.12L11263 6293.15L11319.1 6296.74L11375.2 6300.32L11388.5 6270.89C11404.1 6236.1 11425.8 6232.9 11440.7 6263.19C11458.2 6298.93 11434.6 6328.38 11384.3 6333.62C11345.4 6337.67 11344 6338.76 11343.3 6367.13C11342 6412.4 11340.7 6415.92 11322.8 6421.21C11283.2 6432.89 11262.6 6403.72 11290.2 6375.28C11307.1 6357.9 11298.6 6333.62 11275.5 6333.62C11260.9 6333.62 11258.5 6340.07 11258.5 6379.81C11258.5 6405.22 11263.4 6433.26 11269.3 6442.13C11277.5 6454.27 11277.6 6463.03 11270 6477.62C11256.8 6502.69 11249.4 6575.53 11259.4 6581.28C11277.9 6591.91 11303.5 6567.27 11303.5 6538.87C11303.5 6502.66 11322 6492.67 11380.6 6497.11C11438.4 6501.49 11464 6528.4 11433.1 6552.24C11420.6 6561.85 11416.2 6560.79 11402.4 6544.89C11380.4 6519.64 11350.4 6520.6 11343.4 6546.78C11336.6 6571.87 11344.4 6584.95 11366 6584.95C11391.9 6584.95 11406.1 6608.22 11403.9 6647.28C11402 6681.21 11403.5 6683.55 11429.3 6688.35C11477.6 6697.35 11456.9 6744.13 11404.6 6744.13C11377.8 6744.13 11360.1 6718.94 11351.6 6668.73L11343.9 6622.65H11303.4C11266.5 6622.65 11262.8 6624.57 11260.3 6644.55C11257.9 6663.08 11261.8 6667.25 11285 6671.57C11318.4 6677.78 11320.5 6695.49 11290 6714.04C11264.5 6729.57 11260 6761.47 11281.1 6777.69C11292.5 6786.53 11296.2 6783.99 11304.6 6761.51C11312.2 6741.22 11319.2 6735.45 11333.8 6737.39C11345.8 6738.98 11354.1 6747.04 11355.9 6758.79C11358.4 6774.66 11364.4 6777.64 11393.9 6777.64C11432.4 6777.64 11447.6 6792.96 11447.6 6831.55C11447.6 6845.07 11452.7 6853.04 11461.2 6853.04C11471.8 6853.04 11474.7 6841.13 11474.7 6796.07C11474.7 6741.03 11483.8 6719 11506.5 6719C11537.3 6719 11550.9 6856.89 11523.7 6893.01C11510.6 6910.49 11503.4 6911.54 11399.9 6911.06C11312.8 6910.67 11286.8 6907.81 11274.3 6897.26C11259.4 6884.72 11258.5 6886.81 11258.5 6933.88C11258.5 6979.35 11261.1 6986.19 11288.2 7010.58C11304.5 7025.3 11327.1 7037.35 11338.3 7037.35C11368.8 7037.35 11362.1 6993.89 11330.5 6987.07C11316.5 6984.05 11307 6975.4 11305.2 6964.18C11302.9 6949.49 11308.2 6945.14 11333.5 6940.72C11366.5 6934.97 11402.1 6947.03 11403.3 6964.34C11411.2 7074.82 11405.9 7087.62 11352.5 7087.62C11329.8 7087.62 11315.5 7081.18 11298.4 7063.31C11279.4 7043.44 11268.7 7039.32 11239.8 7040.7C11194.4 7042.87 11184.5 7052.8 11188.1 7092.8C11191.4 7130.3 11213.9 7137.93 11222.4 7104.42C11230.6 7072.1 11257.5 7072.38 11264.4 7104.86C11267.9 7120.99 11276.9 7133.36 11286.9 7135.79C11296 7138.02 11303.5 7146.94 11303.5 7155.62C11303.5 7170.16 11294.6 7171.52 11188.7 7172.96C11125.5 7173.82 11061.7 7174.76 11046.8 7175.05C11007.2 7175.83 10997.3 7185.3 10997.3 7222.42C10997.3 7272.58 11036.3 7276.08 11053.7 7227.48C11057.9 7215.77 11122.4 7213.11 11152.4 7223.42C11184.6 7234.51 11189.4 7252.06 11181.9 7331.01C11174.9 7404.58 11165.9 7416.78 11121.7 7412.83C11095.9 7410.52 11091.5 7406.76 11089.2 7385.03C11087.2 7365.54 11091.2 7358.02 11107.2 7351.52C11138.4 7338.86 11133.2 7318.49 11098 7315.34C11056.8 7311.66 11042.3 7325.67 11042.3 7369.3C11042.3 7399.59 11039.4 7405.97 11025.4 7405.97C10997.9 7405.97 10985.3 7427.51 10991.6 7464.06C10997.1 7495.88 10983 7523.26 10961.2 7523.26C10930 7523.26 10914.4 7616.55 10944.7 7622.03C10955.1 7623.92 10961.5 7616.81 10965.8 7598.41C10970.3 7579.45 10979.3 7569.71 10998.2 7563.61C11012.5 7558.95 11024.6 7552.68 11024.9 7549.67C11037.1 7439.9 11043.9 7432.78 11123.3 7445.84C11150.8 7450.36 11164.7 7457.13 11166.7 7466.93C11169.2 7478.6 11163 7481.38 11134.8 7481.38C11089.4 7481.38 11078.3 7493.01 11078.3 7540.67C11078.3 7602.3 11114.2 7615.6 11127.5 7558.87C11131.8 7540.33 11139 7531.64 11150.1 7531.64C11169.9 7531.64 11177.4 7547.7 11177.4 7589.67C11177.4 7635.27 11156.6 7649.81 11100.1 7643.59C11065.2 7639.74 11052.6 7641.64 11043.2 7652.17C11033.1 7663.46 11033.1 7667.91 11043.2 7679.19C11052.6 7689.83 11065.2 7691.61 11102.2 7687.57C11138.3 7683.62 11152.4 7685.47 11163.3 7695.6C11181.6 7712.61 11181.4 7744.34 11163 7758.57C11150.5 7768.21 11145 7765.78 11122.9 7740.75C11101.6 7716.6 11094.6 7713.3 11081.2 7720.99C11058.5 7733.98 11054.8 7788.19 11076 7798.01C11084.7 7802.06 11126.3 7806.23 11168.4 7807.27C11253.7 7809.38 11265.5 7815.32 11270.6 7858.53C11274.8 7894.12 11298.7 7902.53 11307.1 7871.36C11314.8 7842.94 11344.6 7842.66 11352.3 7870.94C11357.1 7888.86 11363.1 7891.89 11393.5 7891.89C11432.4 7891.89 11447.6 7907.05 11447.6 7945.79C11447.6 7959.31 11452.7 7967.29 11461.2 7967.29C11471.7 7967.29 11474.7 7955.76 11474.7 7913.86C11474.7 7857.92 11488.1 7834.96 11515.1 7844.61C11525.7 7848.41 11528.7 7864.57 11528.6 7918.85C11528.5 7957.01 11525.4 7992.71 11521.6 7998.18C11509.1 8016.44 11465.2 8025.93 11393 8025.93C11335.5 8025.93 11321.5 8028.38 11321.5 8038.5C11321.5 8045.41 11324.6 8051.37 11328.3 8051.74C11332 8052.12 11346.1 8053.18 11359.7 8054.11C11393.6 8056.43 11400.6 8065.35 11407.6 8115.37C11413.2 8154.58 11411.6 8160.78 11390.9 8180.01C11350.8 8217.32 11271.2 8194.29 11278.4 8147.47C11282.1 8123.52 11318.2 8120.27 11326 8143.19C11335 8169.59 11353.1 8158.46 11353.1 8126.5C11353.1 8101.91 11350.1 8098.49 11328.3 8097.6C11291.9 8096.11 11272.4 8073.79 11275.1 8036.6C11278.4 7991.13 11306 7967.29 11355.3 7967.29C11388.2 7967.29 11394.4 7964.81 11391.8 7952.62C11389 7939.68 11379.1 7938.31 11306.6 7940.94C11261.5 7942.58 11216.4 7941.5 11206.4 7938.53C11177.7 7930.08 11174.5 7909.51 11200.1 7898.66C11232.2 7885.06 11229.1 7861.18 11194.6 7856.48C11160.1 7851.77 11139.3 7868.83 11146.7 7895.9C11152.8 7918.74 11137.1 7950.53 11119.7 7950.53C11099.4 7950.53 11083.7 7925.4 11085.8 7896.49C11088 7865.12 11064.5 7838.52 11051.6 7857.9C11047.6 7863.95 11045.6 7881.56 11047.1 7897.02C11051.3 7938.29 11026.6 7963.04 10983.9 7960.37C10965.5 7959.21 10945.8 7961.87 10940.1 7966.27C10933.9 7971.04 10929.7 8000.71 10929.7 8039.89V8105.52L10986.8 8108.03C11052.5 8110.92 11068.1 8102.77 11065.1 8067.14C11061.6 8026.05 11044.6 8017.58 11020.8 8045.1C11007.4 8060.56 10995.5 8066.67 10985.7 8063.18C10954.6 8052.07 10957.1 8005.81 10989.3 7996.3C11017.9 7987.87 11231 7988.54 11239.2 7997.09C11243.4 8001.43 11244.9 8021.09 11242.7 8040.78C11238 8080.95 11216.8 8097.66 11181.1 8089.32C11154.6 8083.13 11152.7 8062.56 11177.9 8055.11C11206.2 8046.77 11193.3 8030.12 11158.7 8030.12H11127.9L11118.8 8088.76L11109.7 8147.41L11068 8151.88C11011 8157.99 10998.7 8169.81 10995.5 8221.4C10993.2 8258.56 10990 8265.07 10973.2 8267.29C10962.4 8268.72 10948.3 8275.73 10942 8282.86C10924.7 8302.26 10956.3 8320.54 11001.8 8317.43L11037.8 8314.96L11044.7 8256.72C11048.5 8224.69 11056.6 8195.53 11062.7 8191.92C11068.8 8188.32 11090.8 8185.31 11111.6 8185.24C11158.1 8185.08 11177.4 8206.29 11177.4 8257.5C11177.4 8302.92 11170.3 8319.15 11150.4 8319.15C11131.3 8319.15 11123.4 8303.01 11123.4 8264.01C11123.4 8234.24 11111.3 8225.63 11101.8 8248.63C11093.3 8269.31 11095.4 8324.08 11105.7 8349.26C11110.8 8361.81 11127 8384.8 11141.7 8400.36C11164.1 8424.07 11168.4 8435.8 11168.4 8472.83C11168.4 8522.34 11149.9 8556.24 11131.9 8539.73C11126 8534.34 11118.4 8504.56 11114.9 8473.56C11109.5 8424.79 11105.1 8414.55 11082.2 8397.54C11052.8 8375.61 11040.4 8373.66 11014.1 8386.76C10999.7 8393.92 10998.3 8398.14 11006.8 8407.7C11012.7 8414.29 11022.4 8419.69 11028.3 8419.69C11034.3 8419.69 11048 8428.41 11058.8 8439.08C11074.5 8454.63 11078.3 8468.62 11078.3 8509.79C11078.3 8541.75 11082.6 8563.61 11089.6 8567.72C11095.8 8571.34 11123.2 8573.36 11150.4 8572.19C11187.6 8570.6 11205.2 8573.95 11221.1 8585.62C11239.9 8599.43 11243.3 8609.05 11248.9 8664.15C11249.2 8667.29 11258.6 8671.06 11269.7 8672.53C11280.7 8674 11291.2 8681.81 11292.8 8689.87C11295.3 8701.83 11289.3 8704.53 11260.2 8704.53C11218.6 8704.53 11203.7 8691.24 11196.1 8647.54C11190.8 8617.27 11189.7 8616.5 11147.3 8613.98C11099 8611.11 11076.7 8622.65 11078.9 8649.35C11081.5 8680.73 11078.6 8685.89 11055.8 8691.22C11015.9 8700.55 11028.3 8721.29 11073.8 8721.29C11112.3 8721.29 11114.4 8720.06 11114.4 8697.75C11114.4 8666.85 11134.4 8641.62 11153.6 8648.45C11170.2 8654.38 11171.4 8671.67 11162.5 8777.66C11157.8 8834.63 11153.9 8847.46 11140.1 8851.53C11098.7 8863.76 11069.8 8831.44 11102.3 8809.29C11122.8 8795.39 11111.3 8771.55 11084.2 8771.55C11058.2 8771.55 11038.2 8791.39 11045.8 8809.75C11048.8 8817.06 11046.9 8830.6 11041.6 8839.84C11033.8 8853.35 11024.6 8856.11 10994.3 8853.89C10961.8 8851.51 10956.7 8853.38 10956.7 8867.9C10956.7 8883.66 10962.7 8884.65 11057.6 8884.65C11172.3 8884.65 11182.7 8889.14 11173.6 8934.29C11168.7 8958.65 11163.6 8964.24 11146.2 8964.24C11109.6 8964.24 11096.4 8973.19 11096.4 8997.96C11096.4 9010.92 11093.9 9027.48 11090.9 9034.77C11085.9 9046.81 10841.8 9048.02 8415.71 9048.02H5746V4524.02V0.0188904H8398.66H11051.3L11051 35.625ZM11260.1 6851.52L11257.3 6879.31L11280.5 6865.13C11297.3 6854.88 11313.6 6852.4 11339.1 6856.2C11376.2 6861.71 11390.1 6853.44 11381 6831.29C11377 6821.58 11363 6819.29 11319.4 6821.22L11263 6823.72L11260.1 6851.52ZM11249.3 232.082C11266.2 252.099 11268.3 264.859 11267.4 343.087C11266.9 391.7 11266.7 436.188 11267 441.947C11267.3 449.335 11287.1 452.419 11333.9 452.419C11382.8 452.419 11403.4 455.834 11411.9 465.341C11431.7 487.548 11408.7 496.345 11319.4 500.691C11211.7 505.928 11204.4 500.691 11204.4 418.31C11204.4 361.979 11203.8 360.264 11181.9 360.264C11165.3 360.264 11159.4 355.809 11159.4 343.3C11159.4 332.915 11168.1 323.25 11181.9 318.375C11200 311.981 11204.4 304.652 11204.4 281.177C11204.4 260.516 11199.2 249.312 11186.4 242.975C11156.9 228.261 11164.1 209.464 11199.3 209.464C11222.1 209.464 11235.2 215.369 11249.3 232.082ZM11478.1 523.873C11493.4 538.053 11489.2 557.552 11469.5 564.608C11459.6 568.143 11456.6 588.278 11456.6 653.223C11456.6 725.798 11454.2 739.526 11438.8 753.845C11426.1 765.712 11413.8 769.079 11395.5 765.689C11368.5 760.652 11352.9 771.451 11347.3 799.209C11342.8 821.224 11301.7 848.199 11282.8 841.471C11262.5 834.205 11263.5 818.66 11285.5 800.124C11308.2 780.977 11294.7 762.397 11258 762.397C11228.9 762.397 11204.4 743.163 11204.4 720.205C11204.4 711.481 11196.3 700.307 11186.4 695.375C11162 683.212 11163.8 666.613 11191.3 649.822C11211.2 637.725 11213.9 630.739 11211.6 597.637C11209.5 568.081 11212.6 557.26 11225.2 549.902C11238.4 542.199 11244 543.532 11254.7 556.901C11262 565.984 11265.6 578.878 11262.9 585.554C11260.1 592.229 11262.9 600.557 11269 604.06C11284.6 613.036 11314.9 596.026 11309 581.632C11300.9 561.975 11313.1 544.575 11335 544.575C11363.3 544.575 11376.7 585.568 11361 623.789C11354.2 640.311 11311.4 661.864 11285.4 661.864C11269 661.864 11266.8 666.081 11269.2 693.28L11272 724.697L11317 724.835C11398.9 725.086 11402.6 721.055 11402.6 632.327C11402.6 566.999 11405.5 551.839 11421.3 533.14C11442.5 508.006 11458.3 505.433 11478.1 523.873ZM11243.8 894.665C11246.2 898.296 11247.7 920.178 11247.2 943.291C11246.7 966.403 11249.2 989.822 11252.9 995.333C11260.2 1006.27 11293.8 1009.21 11295.7 999.069C11296.3 995.613 11297.8 983.596 11299 972.365C11301.9 945.712 11334.7 921.575 11368 921.575C11405.9 921.575 11447.6 943.786 11447.6 963.942C11447.6 987.103 11424.9 993.114 11398.3 976.952C11368.5 958.774 11351.6 959.978 11345.8 980.699C11342.3 993.046 11346.7 1000.37 11361.2 1006.52C11413.9 1028.86 11416.5 1180.92 11363.8 1162.13C11353.5 1158.43 11348.7 1143.49 11346.8 1108.41L11344.1 1059.81L11281.2 1055.62C11225.4 1051.9 11217.1 1049.08 11207 1030.49C11192.5 1003.71 11192 911.377 11206.2 898.117C11218.6 886.642 11237.3 884.92 11243.8 894.665ZM11310.3 1103.06C11330.1 1110.51 11323 1138.73 11299.9 1144.12C11279.4 1148.91 11262.7 1184.07 11273.4 1200.09C11282.3 1213.48 11302.4 1205.55 11305.1 1187.57C11309.8 1156.95 11344.4 1158.07 11356 1189.21C11361.3 1203.28 11369.9 1214.8 11375.1 1214.8C11390.1 1214.8 11386.1 1245.98 11370.3 1251.6C11346.9 1259.97 11231.6 1257.35 11212.9 1248.01C11192.1 1237.69 11190 1218.51 11208.9 1211.77C11217.9 1208.57 11222.5 1195.42 11222.5 1172.79C11222.5 1120.97 11266 1086.42 11310.3 1103.06ZM11346.3 1296.33C11392.5 1300.2 11396.4 1315.86 11355.3 1332.67C11315.9 1348.79 11312.5 1370.19 11348.1 1376.83C11383.3 1383.36 11383.5 1403.28 11348.6 1414.61C11330.1 1420.6 11321.5 1428.94 11321.5 1441C11321.5 1453.05 11330.1 1461.39 11348.6 1467.39C11373.8 1475.58 11384.2 1493.68 11368.8 1502.58C11365 1504.73 11347.4 1509.04 11329.6 1512.14C11274.1 1521.83 11265.4 1505.47 11269 1397.48C11271.3 1327.8 11275.2 1304.44 11285.5 1298.38C11292.9 1294.02 11301 1291.05 11303.5 1291.79C11306 1292.52 11325.3 1294.57 11346.3 1296.33ZM11253 1554.78C11256 1562.07 11258.5 1575.32 11258.5 1584.22C11258.5 1593.12 11263.5 1607.89 11269.7 1617.04C11278.6 1630.29 11278.6 1637.08 11269.7 1650.33C11255.4 1671.64 11255.3 1711.13 11269.5 1724.38C11278.2 1732.47 11278.2 1738.1 11269.5 1751.07C11255.3 1772.23 11255.4 1813.6 11269.7 1834.87C11278.6 1848.11 11278.6 1854.9 11269.7 1868.15C11255.4 1889.43 11255.4 1922.49 11269.7 1943.78C11278.6 1957.02 11278.6 1963.82 11269.7 1977.06C11255.4 1998.37 11255.3 2037.86 11269.5 2051.11C11278.2 2059.21 11278.2 2064.84 11269.5 2077.8C11255.3 2098.97 11255.4 2140.33 11269.7 2161.6C11278.6 2174.85 11278.6 2181.64 11269.7 2194.88C11263.5 2204.04 11258.5 2221.05 11258.5 2232.7C11258.5 2244.34 11263.5 2261.36 11269.7 2270.51C11278.6 2283.76 11278.6 2290.55 11269.7 2303.79C11263.5 2312.95 11258.5 2329.96 11258.5 2341.61C11258.5 2353.25 11263.5 2370.27 11269.7 2379.42C11278.6 2392.67 11278.6 2399.46 11269.7 2412.71C11255.4 2433.91 11255.2 2481.82 11269.3 2494.92C11277.7 2502.74 11277.7 2507.21 11269.3 2515.03C11255.3 2528.05 11255.3 2590.81 11269.3 2603.83C11277.7 2611.65 11277.7 2616.12 11269.3 2623.94C11256.2 2636.1 11254.8 2702.96 11267.5 2710.24C11273.6 2713.71 11273.6 2720.64 11267.5 2731.13C11255.8 2751.48 11255.8 2814.95 11267.5 2814.95C11272.4 2814.95 11276.5 2822.27 11276.5 2831.21C11276.5 2840.16 11272.4 2849.8 11267.5 2852.65C11254.9 2859.89 11256.2 2904 11269.7 2923.98C11278.6 2937.22 11278.6 2944.02 11269.7 2957.26C11255.4 2978.57 11255.3 3018.06 11269.5 3031.31C11278.2 3039.41 11278.2 3045.04 11269.5 3058C11256.2 3077.78 11254.9 3130.26 11267.5 3137.5C11272.4 3140.34 11276.5 3149.99 11276.5 3158.94C11276.5 3167.88 11272.4 3175.2 11267.5 3175.2C11254.7 3175.2 11256.3 3230.82 11269.7 3250.71C11278.6 3263.96 11278.6 3270.75 11269.7 3283.99C11255.6 3304.86 11255.3 3338.23 11268.9 3358.46C11277.1 3370.69 11276.1 3378.09 11264.4 3393.72C11245.8 3418.34 11245.2 3446.35 11263 3460.04C11279.7 3472.95 11280.5 3496.82 11264.5 3509.12C11249.6 3520.64 11255.9 3568.55 11273.1 3574.7C11289.7 3580.63 11288.9 3610.15 11272 3616.19C11250.2 3623.96 11254.8 3673.34 11278.7 3689.41L11299 3703L11278.7 3716.59C11255.9 3731.88 11251.7 3768.52 11269.7 3795.27C11278.6 3808.51 11278.6 3815.3 11269.7 3828.55C11255.5 3849.65 11255.3 3882.85 11269.3 3903.66C11277.5 3915.86 11277.6 3924.5 11269.9 3939.15C11248.9 3978.67 11247.4 3996.99 11263.8 4013.77C11276 4026.31 11277.2 4032.43 11269.1 4039.98C11255.2 4052.92 11255.5 4100.93 11269.7 4122C11278.6 4135.25 11278.6 4142.04 11269.7 4155.28C11255.4 4176.57 11255.4 4209.63 11269.7 4230.91C11278.6 4244.16 11278.6 4250.95 11269.7 4264.19C11255.4 4285.5 11255.3 4325 11269.5 4338.24C11278.2 4346.34 11278.2 4351.97 11269.5 4364.94C11256.2 4384.72 11254.9 4437.19 11267.5 4444.43C11272.4 4447.28 11276.5 4456.93 11276.5 4465.87C11276.5 4474.81 11272.4 4482.13 11267.5 4482.13C11254.7 4482.13 11256.3 4552.12 11269.3 4564.23C11277.7 4572.05 11277.7 4576.52 11269.3 4584.34C11254.9 4597.75 11255.2 4663.95 11269.7 4668.84C11278.7 4671.87 11278.7 4676.18 11269.7 4690.37C11255.3 4713.15 11255.3 4762.16 11269.7 4784.94C11278.7 4799.13 11278.7 4803.43 11269.7 4806.47C11255.2 4811.36 11255.2 4862.8 11269.7 4884.38C11278.6 4897.62 11278.6 4904.42 11269.7 4917.66C11255.4 4938.97 11255.3 4978.46 11269.5 4991.71C11278.2 4999.81 11278.2 5005.44 11269.5 5018.4C11255.3 5039.58 11255.3 5087.4 11269.5 5100.62C11278.2 5108.72 11278.2 5114.35 11269.5 5127.31C11255.4 5148.37 11255.2 5204.63 11269.3 5217.7C11277.7 5225.52 11277.7 5229.99 11269.3 5237.81C11255.2 5250.91 11255.4 5305.27 11269.5 5318.44C11278.2 5326.54 11278.2 5332.17 11269.5 5345.14C11255.3 5366.3 11255.4 5407.66 11269.7 5428.93C11278.6 5442.18 11278.6 5448.97 11269.7 5462.22C11263.5 5471.37 11258.5 5488.39 11258.5 5500.03C11258.5 5511.67 11263.5 5528.69 11269.7 5537.84C11278.6 5551.09 11278.6 5557.88 11269.7 5571.13C11255.4 5592.34 11255.4 5625.45 11269.5 5646.55C11278.2 5659.51 11278.2 5665.14 11269.5 5673.24C11256.3 5685.56 11254.8 5744.05 11267.5 5751.36C11279.2 5758.1 11279.2 5789.06 11267.5 5789.06C11262.5 5789.06 11258.5 5803.89 11258.5 5822.01C11258.5 5847.6 11262.5 5856.14 11276.5 5860.27C11299.7 5867.13 11299.7 5894.79 11276.5 5906.35C11266.6 5911.28 11258.5 5922.42 11258.5 5931.1C11258.5 5957.55 11248.4 5973.37 11231.5 5973.37C11222.6 5973.37 11212.9 5967.47 11210 5960.26C11202.9 5943.1 11202.9 1571.84 11210 1554.67C11217 1537.62 11246 1537.7 11253 1554.78ZM11488.1 6945.12C11491.3 6954.3 11491.2 6965.7 11488.1 6970.47C11484.9 6975.24 11494.8 6983.18 11510 6988.12C11544 6999.13 11547.4 7025.96 11516.3 7036.97C11497.4 7043.66 11494.4 7050.92 11491.1 7099.12C11486.3 7170.13 11470 7188.15 11410.9 7188.15C11382.5 7188.15 11362.7 7183.33 11352.6 7173.97C11338.3 7160.65 11338.6 7158.85 11358.1 7144.18C11370.8 7134.58 11389.5 7129.55 11406.5 7131.13L11434.1 7133.7L11436.4 7049.92C11437.6 7003.84 11440.7 6957.66 11443.3 6947.29C11449.2 6923.61 11480.3 6922.11 11488.1 6945.12ZM11515.1 7207.03C11545.7 7222.99 11517.9 7257.54 11481.5 7248.69C11458.8 7243.17 11448.1 7259.58 11456.1 7287.58C11461.2 7305.47 11467.8 7309.63 11490.8 7309.63C11506.3 7309.63 11525.6 7315.69 11533.5 7323.09C11546.8 7335.46 11546.8 7337.68 11533.2 7350.32C11525.1 7357.89 11504.5 7364.09 11487.5 7364.09C11461.4 7364.09 11456.6 7367.02 11456.6 7383.17C11456.6 7401.92 11435.4 7437.5 11416.6 7450.07C11411.4 7453.58 11395.2 7455.47 11380.7 7454.26C11357.6 7452.34 11353.2 7455.56 11346.6 7479.24C11337.3 7512.73 11307.4 7531.96 11274.2 7525.86C11244.5 7520.39 11242.3 7504.6 11269.1 7488.07C11294.4 7472.45 11285.5 7447.86 11254.5 7447.86C11226.7 7447.86 11200.4 7414.3 11208.8 7389.63C11216.3 7367.62 11245.9 7367.34 11252.1 7389.22C11256.2 7403.98 11264.4 7405.97 11320.5 7405.97C11378 7405.97 11385.6 7404 11398.5 7385.6C11409.6 7369.84 11411.6 7353.47 11407.2 7313.24C11398.4 7233.63 11418.6 7202.96 11481.3 7200.68C11492.4 7200.27 11507.6 7203.13 11515.1 7207.03ZM11247.7 7223.34C11253.6 7228.87 11258.5 7245.21 11258.5 7259.64C11258.5 7274.08 11260.7 7288 11263.5 7290.57C11274.3 7300.63 11303.5 7285.91 11303.5 7270.4C11303.5 7247.08 11320 7221.66 11335 7221.66C11364.1 7221.66 11377.5 7288.32 11354.4 7317.74C11338.4 7338.04 11245.2 7337.13 11220.6 7316.44C11193.7 7293.83 11202.2 7213.29 11231.5 7213.29C11234.4 7213.29 11241.7 7217.81 11247.7 7223.34ZM11524.8 7415.25C11528.5 7420.86 11534 7436.68 11537.1 7450.4C11541.4 7470.28 11547.9 7475.88 11568.6 7477.94C11603.2 7481.37 11619.7 7498.12 11620.7 7530.76C11622.2 7580.3 11589.8 7587.58 11579.6 7540C11572.6 7507.62 11552 7500.23 11516.3 7517.36C11500.8 7524.78 11478.4 7531.97 11466.4 7533.34C11429.7 7537.52 11434.7 7554.69 11474.4 7560.92C11516.3 7567.5 11537.3 7583.41 11538.7 7609.73C11542.5 7676.47 11538.1 7710.03 11523.6 7724.9C11504.5 7744.59 11472.1 7745.88 11455.8 7727.61C11445.6 7716.17 11446.4 7712.39 11461 7702.48C11470.4 7696.07 11480.9 7690.82 11484.4 7690.82C11493.9 7690.82 11498.9 7635.48 11491.1 7615.89C11484.4 7598.96 11462.2 7593.99 11435.7 7603.46C11423.9 7607.66 11424.1 7611.32 11437.2 7632.5C11451.3 7655.34 11451.2 7657.59 11435.6 7671.68C11419.7 7686.05 11418.5 7685.9 11405.2 7667.78C11389.1 7645.79 11364.7 7643.38 11348 7662.14C11338.2 7673.08 11338.4 7676.64 11349.1 7682.95C11356.3 7687.14 11367 7690.62 11373 7690.69C11391.4 7690.91 11404 7723.45 11401.3 7763.89C11399.2 7795.74 11402.2 7804.42 11418.7 7814.61C11429.7 7821.37 11438.6 7832.1 11438.6 7838.45C11438.6 7856.1 11386.5 7852.65 11360 7833.24C11347.4 7824.03 11331.6 7816.49 11324.8 7816.49C11305 7816.49 11310.6 7785.41 11331.3 7780.37C11344.7 7777.11 11349.1 7770.35 11347 7756.49C11344.4 7739.1 11340 7737.44 11303.5 7739.85C11281.2 7741.32 11256 7748.38 11247.4 7755.53C11234.7 7766.1 11229.2 7766.56 11218.1 7757.97C11207.8 7749.99 11204.4 7729.37 11204.4 7673.36C11204.4 7607.64 11206.7 7597.37 11224.5 7581.98C11250.7 7559.21 11272.9 7563.46 11269.1 7590.55C11256 7685.89 11256.2 7692.46 11272.5 7689.51C11281.3 7687.92 11293 7673.96 11298.6 7658.47C11311.8 7622.03 11334.7 7607.04 11377.3 7607.04C11411.8 7607.04 11423.2 7596.22 11398.1 7587.26C11389.2 7584.08 11384.6 7570.98 11384.6 7548.88C11384.6 7520.19 11388.4 7513.46 11411.2 7502.53C11425.8 7495.5 11448.1 7489.75 11460.7 7489.75C11473.3 7489.75 11484 7485.04 11484.4 7479.28C11484.9 7473.52 11485.9 7455.68 11486.7 7439.64C11488.2 7409.44 11511.2 7394.75 11524.8 7415.25ZM11712.6 7764.84C11730.6 7797.18 11730.7 7824.37 11713.1 7847.8C11681.5 7889.81 11587 7874.95 11581.1 7827.03C11578.4 7805.51 11575 7803.75 11531.8 7801.41C11452.6 7797.15 11465.1 7757.84 11545.6 7757.84C11565.4 7757.84 11584.2 7754.07 11587.3 7749.46C11590.3 7744.86 11600.6 7741.09 11610.1 7741.09C11627.7 7741.09 11634 7754.82 11638.8 7803.92C11642.7 7843.7 11666.4 7835.61 11675.6 7791.35C11686.1 7740.84 11695.5 7734.09 11712.6 7764.84ZM11667.5 7921.65C11679.9 7933.2 11681.4 7946.21 11676.5 7999.57C11673.3 8034.8 11665.6 8068.63 11659.5 8074.75C11653.3 8080.86 11631.6 8087.94 11611.2 8090.49C11581.1 8094.24 11572.9 8092.3 11568 8080.33C11559.4 8059.56 11576.3 8038.53 11601.8 8038.34C11614.7 8038.24 11623.3 8033.22 11623.3 8025.77C11623.3 8017.16 11611.6 8012.58 11585 8010.79C11554.1 8008.71 11546.7 8005.09 11546.7 7991.94C11546.7 7975.33 11549.7 7974.13 11595.4 7972.44C11631.4 7971.12 11634.8 7953.93 11600.4 7947.54C11580 7943.74 11573.2 7938.31 11575.4 7927.58C11579.6 7906.8 11646.9 7902.47 11667.5 7921.65ZM11488.8 8065.73C11498.3 8106.24 11500.8 8109.71 11520 8109.71C11547.3 8109.71 11540.8 8146.4 11512.9 8150.09C11494.2 8152.56 11492.7 8157.01 11492.7 8210.23C11492.7 8250.67 11488.6 8271.49 11478.9 8280.53C11447.2 8310.02 11356.5 8305 11349.9 8273.38C11345.6 8252.86 11365.4 8243.06 11399.3 8248.83C11416.7 8251.79 11430.1 8249.78 11434.2 8243.59C11437.9 8238.06 11440.2 8197.08 11439.3 8152.52C11438.4 8107.96 11440.4 8065.02 11443.6 8057.1C11453.2 8033.8 11482.6 8039.4 11488.8 8065.73ZM11236.5 8138.59C11244.4 8149.86 11250.2 8173.42 11249.3 8190.95C11246.8 8240.65 11248.1 8243.75 11270.9 8243.75C11300.1 8243.75 11318.5 8264.64 11303.8 8281.13C11285.5 8301.71 11260.1 8304.23 11231.2 8288.35C11200.4 8271.45 11190.9 8247.89 11198.1 8206.59C11203.4 8176.34 11192.3 8159.98 11166.6 8159.98C11146.3 8159.98 11144.7 8130.29 11164.6 8123.17C11194.7 8112.46 11222.3 8118.38 11236.5 8138.59ZM11601.2 8294.82C11606.8 8304.47 11610 8331.81 11608.4 8355.56C11606.9 8379.31 11608.8 8403.45 11612.7 8409.21C11616.8 8415.27 11638.5 8419.69 11664 8419.69C11714 8419.69 11726.9 8432.05 11726.9 8480.1C11726.9 8527.84 11706.4 8545.35 11650.5 8545.35C11591.3 8545.35 11573.7 8539.62 11573.7 8520.22C11573.7 8502.45 11591.1 8495.09 11633 8495.09C11659.9 8495.09 11663.8 8492.4 11663.8 8474.14C11663.8 8454.72 11660.7 8453.2 11620.7 8453.2C11582.7 8453.2 11575.8 8450.33 11562.2 8428.87C11544.7 8401.43 11541 8319.54 11556 8293.47C11568.3 8272.24 11588.6 8272.85 11601.2 8294.82ZM11520.3 8324.04C11537.3 8343.11 11520 8364.62 11485 8367.86C11460.3 8370.15 11456.6 8373.63 11456.6 8395.08C11456.6 8408.61 11459.7 8419.99 11463.4 8420.37C11467.1 8420.74 11481.2 8421.81 11494.8 8422.73C11548.6 8426.41 11546.6 8469.95 11492.7 8469.95C11462.1 8469.95 11446.7 8485.8 11453.6 8510.17C11456.5 8520.67 11452.4 8537.57 11444 8549.53C11432 8566.59 11421.9 8570.49 11389.9 8570.49C11352.1 8570.49 11350.3 8571.63 11344.7 8599.71C11338.4 8630.7 11314.1 8649.15 11290.7 8640.77C11272.8 8634.38 11272.3 8609.26 11289.9 8595.7C11308.5 8581.38 11298.5 8570.49 11267 8570.49C11216.2 8570.49 11204.4 8547.84 11204.4 8449.69C11204.4 8351.35 11208.2 8335.91 11232.3 8335.91C11248.3 8335.91 11253.2 8345.42 11260.5 8390.36C11265.3 8419.6 11297.4 8411.27 11304.5 8378.97C11307.9 8363.48 11316.6 8345.3 11323.8 8338.57C11344.8 8319.01 11366.6 8345.49 11366.6 8390.67C11366.6 8431.41 11351.8 8444.72 11306.4 8444.95C11272.4 8445.12 11260.7 8453.27 11258.4 8478.33C11254.6 8520.05 11254.9 8520.22 11330.5 8520.22C11370.2 8520.22 11402.9 8517.39 11403.4 8513.94C11403.8 8510.48 11405.2 8468.44 11406.5 8420.52C11408.5 8347.07 11411.4 8331.61 11425.5 8322.08C11448.4 8306.5 11505.7 8307.69 11520.3 8324.04ZM11528.9 8524.95C11533.8 8536.77 11537.7 8555.62 11537.7 8566.84C11537.7 8583.02 11542.4 8587.24 11560.2 8587.24C11586.5 8587.24 11618.8 8614.08 11618.8 8635.91C11618.8 8657.32 11596.5 8683.1 11584.1 8675.99C11578.4 8672.71 11573.7 8665.06 11573.7 8658.98C11573.7 8636.41 11552.6 8630.21 11515.8 8641.99C11496.3 8648.24 11477 8651.43 11472.9 8649.08C11462.5 8643.07 11429.6 8653.79 11429.6 8663.21C11429.6 8667.5 11442.1 8671.02 11457.2 8671.02C11518.8 8671.02 11545.1 8706.62 11540.6 8783.62C11539 8811.39 11532.7 8836.43 11526.5 8840.25C11488.9 8863.13 11429.6 8856.88 11429.6 8830.04C11429.6 8820.91 11432.7 8812.96 11436.4 8812.37C11440.1 8811.78 11452.4 8810.41 11463.7 8809.31C11490.2 8806.75 11490.7 8806.16 11492.7 8771.55C11495.7 8722.49 11494.8 8721.29 11457 8721.29C11367.7 8721.29 11356.1 8618.07 11443.9 8604.9C11478.2 8599.75 11479.2 8598.62 11482 8562.17C11486.4 8504.94 11512.3 8484.37 11528.9 8524.95ZM11424.4 8742.32C11463.5 8778.7 11435.3 8803.13 11387.7 8774.11C11365.5 8760.6 11363.8 8760.7 11351.5 8776.21C11340 8790.83 11340.9 8794.21 11360.5 8809.25C11390.8 8832.55 11404.3 8860.09 11401 8891.46C11398.7 8912.55 11402.4 8919.9 11418.4 8926.43C11457.7 8942.48 11438.8 8972.62 11389.5 8972.62C11359.2 8972.62 11349.9 8957.05 11346.8 8901.12L11344.1 8851.14L11302.1 8848.62C11268.2 8846.58 11256.5 8849.68 11241.6 8864.55C11226.2 8879.88 11220.7 8881.2 11209.3 8872.33C11193.5 8860.13 11189.8 8767.57 11204.3 8746.42C11217.4 8727.4 11244 8746.65 11249.5 8779.03C11252 8793.71 11257 8805.57 11260.7 8805.39C11264.5 8805.21 11273.6 8805.06 11281 8805.06C11288.7 8805.06 11294.5 8797.56 11294.5 8787.76C11294.5 8768.05 11310.4 8736.83 11325.1 8727.7C11348.2 8713.38 11401.8 8721.27 11424.4 8742.32ZM11631.3 8851.83C11634.3 8859.12 11636.8 8879.63 11636.8 8897.41C11636.8 8915.19 11640.8 8932.07 11645.8 8934.92C11657.1 8941.42 11657.7 8981 11646.5 8981C11642 8981 11632.4 8983.1 11625.2 8985.67C11607.2 8992.09 11582.7 8967.36 11582.7 8942.7C11582.7 8924.37 11579 8922.34 11544.5 8922.24C11489.9 8922.08 11465.7 8914.34 11465.7 8897.14C11465.7 8878.18 11483.2 8872.09 11537.8 8872.09C11573.6 8872.09 11582.6 8869.05 11587.3 8855.33C11594.1 8835.38 11623.6 8833.03 11631.3 8851.83ZM11312.7 8897.54C11325.7 8920.08 11317.1 8942.8 11289.1 8959.86C11270.9 8970.94 11268.4 8976.13 11276.8 8985.57C11284.9 8994.62 11303.8 8996.41 11357.2 8993.19C11413.5 8989.8 11429.3 8991.53 11438.8 9002.1C11460.1 9025.98 11436.4 9031.93 11329.8 9029.46L11227 9027.08L11224.3 8979.59C11221.9 8937.51 11223.8 8931.47 11240.6 8926.51C11251 8923.42 11264 8911.8 11269.5 8900.68C11281.6 8875.98 11299.6 8874.67 11312.7 8897.54ZM11532.2 8969.12C11547.9 9007.04 11534.4 9048.02 11506.2 9048.02C11483.7 9048.02 11474.7 9033.89 11474.7 8998.74C11474.7 8960.94 11519.4 8937.94 11532.2 8969.12ZM11171.1 9011.43C11174.6 9014.66 11177.4 9024.21 11177.4 9032.66C11177.4 9043.57 11170.7 9048.02 11154.3 9048.02C11135.5 9048.02 11131.7 9044.52 11134 9029.26C11136.9 9010.68 11158.9 9000.08 11171.1 9011.43Z" fill="url(#paint1_radial_123_1054)"/>
<defs>
<radialGradient id="paint0_radial_123_1054" cx="0" cy="0" r="1" gradientUnits="userSpaceOnUse" gradientTransform="translate(7588.94 3620.02) rotate(-141.79) scale(5852.42 10662.3)">
<stop offset="0.601486" stop-color="#C6BB86"/>
<stop offset="1" stop-color="#ACA072"/>
</radialGradient>
<radialGradient id="paint1_radial_123_1054" cx="0" cy="0" r="1" gradientUnits="userSpaceOnUse" gradientTransform="translate(4137.92 5428) rotate(38.2104) scale(5852.42 10662.3)">
<stop offset="0.601486" stop-color="#C6BB86"/>
<stop offset="1" stop-color="#ACA072"/>
</radialGradient>
</defs>
</svg>
