<?xml version="1.0" encoding="UTF-8" standalone="no"?>
<svg
   xmlns:dc="http://purl.org/dc/elements/1.1/"
   xmlns:cc="http://creativecommons.org/ns#"
   xmlns:rdf="http://www.w3.org/1999/02/22-rdf-syntax-ns#"
   xmlns:svg="http://www.w3.org/2000/svg"
   xmlns="http://www.w3.org/2000/svg"
   xmlns:sodipodi="http://sodipodi.sourceforge.net/DTD/sodipodi-0.dtd"
   xmlns:inkscape="http://www.inkscape.org/namespaces/inkscape"
   version="1.1"
   id="svg833"
   width="144"
   height="144"
   viewBox="0 0 144 144"
   sodipodi:docname="camera-rune-hover.svg"
   inkscape:version="1.0.2 (e86c870879, 2021-01-15)">
  <metadata
     id="metadata839">
    <rdf:RDF>
      <cc:Work
         rdf:about="">
        <dc:format>image/svg+xml</dc:format>
        <dc:type
           rdf:resource="http://purl.org/dc/dcmitype/StillImage" />
        <dc:title></dc:title>
      </cc:Work>
    </rdf:RDF>
  </metadata>
  <defs
     id="defs837" />
  <sodipodi:namedview
     pagecolor="#ffffff"
     bordercolor="#666666"
     borderopacity="1"
     objecttolerance="10"
     gridtolerance="10"
     guidetolerance="10"
     inkscape:pageopacity="0"
     inkscape:pageshadow="2"
     inkscape:window-width="1827"
     inkscape:window-height="1046"
     id="namedview835"
     showgrid="false"
     inkscape:zoom="5.5833333"
     inkscape:cx="72"
     inkscape:cy="72"
     inkscape:window-x="-11"
     inkscape:window-y="-11"
     inkscape:window-maximized="1"
     inkscape:current-layer="g841" />
  <g
     inkscape:groupmode="layer"
     inkscape:label="Image"
     id="g841">
    <path
       style="fill:#a1712e;fill-opacity:0.89803922"
       d="m 31.786094,97.657016 c -1.215088,-3.166466 -0.675513,-47.949686 0.593011,-49.21821 0.691234,-0.691234 4.001971,-1.2 7.80887,-1.2 3.796319,0 7.266469,-0.531965 8.15408,-1.25 0.849864,-0.6875 3.218454,-4.0625 5.263529,-7.5 l 3.71833,-6.25 h 14.85519 14.855192 l 3.71833,6.25 c 2.04508,3.4375 4.413673,6.8125 5.263533,7.5 0.88761,0.718035 4.357761,1.25 8.154081,1.25 3.8069,0 7.11764,0.508766 7.80887,1.2 1.26852,1.268524 1.8081,46.051744 0.59301,49.21821 -0.53942,1.40571 -5.03585,1.58179 -40.393016,1.58179 -35.357157,0 -39.85359,-0.17608 -40.39301,-1.58179 z M 82.913756,87.570084 c 5.42269,-4.382856 7.55107,-8.548228 7.55107,-14.777935 0,-18.834393 -24.573502,-25.863025 -34.026632,-9.732466 -7.696123,13.132434 1.87602,28.874329 16.97556,27.917223 4.578242,-0.290198 6.493942,-0.977194 9.500002,-3.406822 z m -16.367932,-4.24934 c -4.45258,-2.715049 -6.3721,-5.914955 -6.33128,-10.554444 0.0433,-4.92245 1.67116,-8.036073 5.53199,-10.581149 5.52489,-3.642033 13.851992,-1.573185 17.079712,4.243411 2.0233,3.646146 1.66087,10.148952 -0.73543,13.195365 -4.35303,5.53398 -10.237242,6.933328 -15.544992,3.696817 z M 33.691878,41.259473 c -0.332894,-0.538634 -0.118619,-1.888634 0.476167,-3 0.926202,-1.730626 2.081139,-2.020667 8.046244,-2.020667 7.569496,0 9.073769,1.409424 4.74231,4.443296 -2.475478,1.733892 -12.286037,2.160914 -13.264721,0.577371 z"
       id="path845" />
  </g>
</svg>
